<?xml version="1.0" standalone="no"?>
<!DOCTYPE svg PUBLIC "-//W3C//DTD SVG 1.1//EN" "http://www.w3.org/Graphics/SVG/1.1/DTD/svg11.dtd">
<svg xmlns="http://www.w3.org/2000/svg">
<defs >
<font id="Grenze" horiz-adv-x="517" ><font-face
    font-family="Grenze ExtraBold"
    units-per-em="1000"
    panose-1="2 14 9 4 6 4 3 5 4 4"
    ascent="1100"
    descent="-380"
    alphabetic="0" />
<glyph unicode=" " glyph-name="space" horiz-adv-x="166" />
<glyph unicode="!" glyph-name="exclam" horiz-adv-x="311" d="M120 190T110 197T100 207L74 629Q191 651 207 651Q212 651 224 639T237 623L209 201Q135 190 124 190Q120 190 110 197ZM105 -7T93 6T80 25L89 125H223L231 2Q168 -7 112 -7Q105 -7 93 6Z" />
<glyph unicode="&quot;" glyph-name="quotedbl" horiz-adv-x="382" d="M27 682Q96 695 137 695Q144 695 157 682T170 665Q155 553 142 484L47 483L27 682ZM212 682Q281 695 322 695Q329 695 342 682T354 665Q342 562 327 484L232 483L212 682Z" />
<glyph unicode="#" glyph-name="numbersign" horiz-adv-x="549" d="M412 285L399 198H490L478 101H386L368 -25H275L293 101H212L194 -25H101L119 101H26L38 198H132L144 285H55L66 382H158L174 499H268L251 382H332L348 499H442L425 382H518L507 285H412ZM318
285H238L225 198H306L318 285Z" />
<glyph unicode="$" glyph-name="dollar" horiz-adv-x="531" d="M330 331Q380 304 410 284T462 237T484 176Q484 157 479 122Q460 89 411 51T320 -4V-118H222L223 -10L112 -1Q69 3 57 4L64 192H146L166 96Q262 79 297 79Q303 79 311 97T319 128Q319 150 293 168T207
218Q138 255 99 293T60 385Q60 409 64 433Q79 462 130 503T223 562V675H319V567Q402 559 463 550L455 373H373L361 463Q355 464 348 465T330 469Q254 482 237 482Q230 482 224 468T217 436Q217 411 237 392T297 349L330 331Z" />
<glyph unicode="%" glyph-name="percent" horiz-adv-x="877" d="M530 611H633L349 -9H246L530 611ZM149 286T114 325T78 446Q78 520 117 564T233 608Q313 608 348 570T384 453Q384 379 345 333T230 286Q149 286 114 325ZM252 357T277 374Q284 413 284 457Q284
499 273 518T236 537Q212 537 182 521Q177 481 177 448Q177 401 188 379T228 357Q252 357 277 374ZM565 -10T530 29T494 150Q494 224 533 268T649 312Q729 312 764 274T800 157Q800 83 761 37T646 -10Q565 -10 530 29ZM668 61T693 78Q700 119 700 162Q700 204 689
223T652 242Q627 242 598 225Q593 185 593 152Q593 105 604 83T644 61Q668 61 693 78Z" />
<glyph unicode="&amp;" glyph-name="ampersand" horiz-adv-x="620" d="M613 66V0H427Q419 2 373 52L360 36Q332 22 287 7T229 -9Q133 -9 78 33T22 161Q22 216 54 260T140 337Q85 415 85 481Q85 518 95 534Q121 557 184 589T266 622Q333 622 377 600T422 530Q422
504 405 430H320L316 516Q314 557 253 557Q246 556 242 546T237 521Q237 494 248 465T276 409Q326 337 407 243L424 273L435 294L388 307L389 368H607V299L546 288Q519 249 466 176Q526 111 564 79L613 66ZM296 73T323 110Q294 144 218 238Q204 254 198 262Q181
225 181 180Q181 130 202 97T253 63Q269 63 285 69Q296 73 323 110Z" />
<glyph unicode="&apos;" glyph-name="quotesingle" horiz-adv-x="197" d="M27 682Q96 695 137 695Q144 695 157 682T170 665Q155 553 142 484L47 483L27 682Z" />
<glyph unicode="(" glyph-name="parenleft" horiz-adv-x="288" d="M120 -44T74 62T28 289Q28 410 74 514T200 688L266 646Q227 576 206 484T185 292Q185 192 206 95T266 -78L200 -120Q120 -44 74 62Z" />
<glyph unicode=")" glyph-name="parenright" horiz-adv-x="288" d="M22 -78Q61 -8 82 85T104 276Q104 376 83 473T22 646L88 688Q169 613 214 506T260 279Q260 158 215 54T88 -120L22 -78Z" />
<glyph unicode="*" glyph-name="asterisk" horiz-adv-x="329" d="M119 395L137 476L78 422L50 426L16 505L104 533L18 563L47 640L73 644L137 589L116 686L201 692L218 673L199 589L260 642L286 637L324 561L231 533L319 502L287 426L260 423L199 477L221 382L135
374L119 395Z" />
<glyph unicode="+" glyph-name="plus" horiz-adv-x="600" d="M508 204H355V29H246V204H92V304H246V478H355V304H508V204Z" />
<glyph unicode="," glyph-name="comma" horiz-adv-x="246" d="M44 -120Q69 -50 77 -5Q74 -2 60 9T46 29L52 121Q77 127 110 131T164 136Q170 136 187 118T204 91V40Q204 -33 108 -153L44 -120Z" />
<glyph unicode="-" glyph-name="hyphen" horiz-adv-x="312" d="M32 297H280V191H32V297Z" />
<glyph unicode="." glyph-name="period" horiz-adv-x="236" d="M75 -15T58 3T41 31L38 114Q63 121 101 127T157 133Q164 133 181 114T198 87L190 0Q171 -4 136 -8T82 -15Q75 -15 58 3Z" />
<glyph unicode="/" glyph-name="slash" horiz-adv-x="395" d="M240 687H358L155 -118H37L240 687Z" />
<glyph unicode="0" glyph-name="zero" horiz-adv-x="538" d="M150 -12T92 53T33 241Q33 304 56 360T131 453T268 490Q387 490 446 426T505 241Q505 178 482 121T405 26T270 -12Q150 -12 92 53ZM288 66T326 86Q337 130 337 241Q337 331 325 369T286 408Q244 408
211 388Q204 365 203 333T201 241Q201 146 212 106T249 66Q288 66 326 86Z" />
<glyph unicode="1" glyph-name="one" horiz-adv-x="388" d="M47 65L135 89V365L39 355V431L224 490L291 465V89L369 65V0H47V65Z" />
<glyph unicode="2" glyph-name="two" horiz-adv-x="465" d="M20 62L173 248Q203 285 217 311T231 360Q231 376 225 391T210 406Q202 406 174 401T140 394L130 311H53L46 469Q89 476 165 483T263 490Q322 490 366 462T410 374Q410 339 397 308T356 241L251 109V96H341L353
167H430L434 0H30L20 62Z" />
<glyph unicode="3" glyph-name="three" horiz-adv-x="437" d="M55 -27Q129 -11 184 28T240 122Q240 147 229 164T203 181H104V247Q170 263 197 289T224 361Q224 376 218 391T203 406Q198 406 162 400Q134 394 129 394L119 324H42L35 469Q76 476 135 483T215 490Q291
490 336 461T382 369Q382 340 366 315T326 273T281 251V243Q408 234 408 129Q408 74 357 25T224 -58T55 -102V-27Z" />
<glyph unicode="4" glyph-name="four" horiz-adv-x="509" d="M274 36H19L13 102Q107 342 160 492L301 438V403Q284 370 233 281T150 140V128H274V224L389 266L421 252V128H480V36H421V-100H274V36Z" />
<glyph unicode="5" glyph-name="five" horiz-adv-x="425" d="M41 -27Q131 -7 181 26T232 128Q232 164 213 181T164 198Q159 198 126 188T65 168L34 205L62 478H268L276 531H358L359 382H153L142 264Q161 272 191 283T227 295Q308 295 350 257T392 152Q392 82 344
27T216 -61T41 -102V-27Z" />
<glyph unicode="6" glyph-name="six" horiz-adv-x="487" d="M195 -12T143 16T63 97T34 223Q34 328 84 404T218 524T398 577V503Q315 482 269 440T203 328L207 326Q275 364 282 364Q372 364 413 310T454 180Q454 162 451 139T443 102Q407 57 352 23T263 -12Q195
-12 143 16ZM277 69T284 99T291 175Q291 270 251 270Q245 269 230 265T198 253Q196 211 196 191Q196 133 211 101T267 69Q277 69 284 99Z" />
<glyph unicode="7" glyph-name="seven" horiz-adv-x="463" d="M187 -108T142 -89T70 -56L302 370L300 382H125L113 305H36L28 478H429L441 412L234 -89Q226 -95 214 -101T196 -108Q187 -108 142 -89Z" />
<glyph unicode="8" glyph-name="eight" horiz-adv-x="485" d="M139 -12T87 31T34 139Q34 183 54 214T123 275V282Q87 309 67 340T47 412Q47 447 53 464Q63 478 98 506T173 556T239 578Q299 578 344 560T414 510T438 440Q438 394 418 365T361 305V299Q404 272 428
239T452 158Q452 129 443 102Q433 87 398 59T323 10T257 -12Q139 -12 87 31ZM300 385T300 415Q300 452 284 474T225 496Q219 496 211 480T203 441Q203 409 224 388T290 343Q300 385 300 415ZM280 69T287 87T295 128Q295 157 270 178T187 233Q172 201 172 173Q172
128 192 99T274 69Q280 69 287 87Z" />
<glyph unicode="9" glyph-name="nine" horiz-adv-x="487" d="M88 -26Q172 -6 219 37T284 149L280 151L254 137Q212 114 207 114Q116 114 75 169T33 300Q33 318 36 340T45 376Q80 420 135 455T224 490Q292 490 344 462T424 380T453 255Q453 150 402 73T268 -47T88
-101V-26ZM243 208T289 224Q291 266 291 284Q291 343 276 376T220 409Q209 409 203 379T196 307Q196 254 207 231T238 208Q243 208 289 224Z" />
<glyph unicode=":" glyph-name="colon" horiz-adv-x="236" d="M75 -15T58 3T41 31L38 114Q63 121 101 127T157 133Q164 133 181 114T198 87L190 0Q171 -4 136 -8T82 -15Q75 -15 58 3ZM75 329T58 347T41 375L38 458Q63 465 101 471T157 477Q164 477 181 458T198
431L190 344Q171 340 136 336T82 329Q75 329 58 347Z" />
<glyph unicode=";" glyph-name="semicolon" horiz-adv-x="236" d="M75 329T58 347T41 375L38 458Q63 465 101 471T157 477Q164 477 181 458T198 431L190 344Q171 340 136 336T82 329Q75 329 58 347ZM295 -120Q320 -50 328 -5Q325 -2 311 9T297 29L303 121Q328
127 361 131T415 136Q421 136 438 118T455 91V40Q455 -33 359 -153L295 -120Z" />
<glyph unicode="&lt;" glyph-name="less" horiz-adv-x="572" d="M77 164V307L495 487V365L178 236L495 106V-15L77 164Z" />
<glyph unicode="=" glyph-name="equal" horiz-adv-x="578" d="M92 391H486V292H92V391ZM92 209H486V111H92V209Z" />
<glyph unicode="&gt;" glyph-name="greater" horiz-adv-x="572" d="M77 106L394 236L77 365V487L495 307V164L77 -15V106Z" />
<glyph unicode="?" glyph-name="question" horiz-adv-x="502" d="M368 650T412 617T456 508Q456 472 442 443T407 391T349 336L323 312Q292 284 279 258T264 183Q199 171 179 171Q175 171 165 178T155 189L151 273Q149 314 169 344T229 409Q273 449 290 474T307
524Q307 541 301 554T282 568Q261 568 182 546L162 439H81L74 621Q204 650 285 650Q368 650 412 617ZM272 123L281 -2Q225 -9 170 -9Q163 -9 149 6T135 26L148 123H272Z" />
<glyph unicode="@" glyph-name="at" horiz-adv-x="938" d="M299 -223T212 -169T76 -14T28 219Q28 358 83 467T241 637T484 699Q688 699 799 608T910 342Q910 278 893 213T847 95T790 14Q737 4 658 -4T553 -12Q548 -12 532 5T515 29V53L494 37Q429 -12 424 -12Q342
-12 295 46T248 205Q248 248 256 292T275 363Q288 378 327 404T405 451T459 472Q470 472 551 459T664 441V88L732 77Q770 193 770 301Q770 453 701 530T487 607Q427 607 367 591T261 546Q223 505 197 409T171 218Q171 45 242 -48T474 -142Q507 -142 544 -139L555
-205Q481 -223 415 -223Q299 -223 212 -169ZM462 95T508 120V367Q501 369 484 380Q446 402 441 401Q431 399 423 349T415 219Q415 167 426 131T455 95Q462 95 508 120Z" />
<glyph unicode="A" glyph-name="A" horiz-adv-x="646" d="M-4 65L58 85L226 604Q253 608 312 614T394 622Q397 622 417 610L586 85L648 65V0H339V72L407 90L383 177H220L200 90L270 72V0H-4V65ZM360 264L306 482H296L241 264H360Z" />
<glyph unicode="B" glyph-name="B" horiz-adv-x="577" d="M25 65L85 89V521L25 545V610H376Q454 610 492 575T530 455Q530 414 515 388T481 348T437 322V316Q492 306 525 269T559 174Q559 80 510 40T377 0H25V65ZM295 347Q330 347 345 364T361 432Q361 485 352
507T318 529L256 521V347H295ZM361 79T374 103T387 186Q387 219 379 235T357 255T317 260H256V90L331 80Q361 79 374 103Z" />
<glyph unicode="C" glyph-name="C" horiz-adv-x="488" d="M142 -12T82 59T21 285Q21 399 53 487Q75 513 121 545T214 599T281 622Q293 622 421 606L461 601L449 393H368L353 514Q333 521 304 526T257 531Q239 531 232 526Q218 518 209 458T199 309Q199 189 226
142T312 94H356L375 217H454L459 14Q426 6 353 -3T265 -12Q142 -12 82 59Z" />
<glyph unicode="D" glyph-name="D" horiz-adv-x="606" d="M25 65L85 89V521L25 545V610H374Q429 610 477 582T555 490T585 321Q585 157 530 79T374 0H25V65ZM371 82T390 143T410 312Q410 404 390 466T337 529L256 521V91L337 82Q371 82 390 143Z" />
<glyph unicode="E" glyph-name="E" horiz-adv-x="541" d="M25 65L85 89V521L25 545V610H510L497 419H415L402 530L256 516V360L391 355V271L256 264V96L411 80L429 195H511L515 0H25V65Z" />
<glyph unicode="F" glyph-name="F" horiz-adv-x="504" d="M25 65L85 89V521L25 545V610H490L477 411H395L383 530L256 516V342L406 337V252L256 246V97L356 68V0H25V65Z" />
<glyph unicode="G" glyph-name="G" horiz-adv-x="586" d="M164 -12T93 60T21 285Q21 399 53 487Q75 513 121 545T214 599T281 622Q299 622 384 615T511 601L499 403H414L402 513Q298 531 257 531Q239 531 232 526Q218 518 209 458T199 309Q199 224 209 177T241
109T300 89L380 97V223L287 240V311H580V245L522 232V53Q501 41 411 15T305 -12Q164 -12 93 60Z" />
<glyph unicode="H" glyph-name="H" horiz-adv-x="678" d="M25 65L85 89V521L25 545V610H312V538L252 512V355H426V512L366 538V610H654V545L593 521V89L654 65V0H366V76L426 98V269H252V98L312 76V0H25V65Z" />
<glyph unicode="I" glyph-name="I" horiz-adv-x="350" d="M25 65L89 89V521L25 545V610H325V544L260 520V90L325 66V0H25V65Z" />
<glyph unicode="J" glyph-name="J" horiz-adv-x="335" d="M70 -147T7 -134Q-27 -127 -55 -123V-44Q36 -44 51 -41Q83 -36 83 70V521L18 545V610H319V545L254 521V54Q254 18 222 -29T148 -112T88 -147Q70 -147 7 -134Z" />
<glyph unicode="K" glyph-name="K" horiz-adv-x="641" d="M25 65L85 89V521L25 545V610H311V538L252 512V98L312 76V0H25V65ZM272 276V330L414 518L355 538V610H630V545L572 525L420 331Q446 292 499 216T590 89L644 66V0H437L272 276Z" />
<glyph unicode="L" glyph-name="L" horiz-adv-x="510" d="M25 65L85 89V521L25 545V610H327V544L256 520V96L394 80L415 211H496L500 0H25V65Z" />
<glyph unicode="M" glyph-name="M" horiz-adv-x="841" d="M17 65L77 89L97 521L36 545V610H304L415 226H428L540 610H809V545L748 521L768 89L829 65V0H529V72L598 96L591 387H582Q575 357 565 317T545 249L471 38Q451 34 415 29T358 22Q355 22 336 34L260 251Q243
301 223 387H214L204 96L273 72V0H17V65Z" />
<glyph unicode="N" glyph-name="N" horiz-adv-x="654" d="M412 -12T392 0L282 214Q241 291 212 386H203L212 132V96L281 72V0H25V65L85 89V521L25 545V610H274L402 354Q428 305 453 216H462L453 482V514L385 538V610H641V545L580 521V6Q552 3 498 -3T415 -12Q412
-12 392 0Z" />
<glyph unicode="O" glyph-name="O" horiz-adv-x="597" d="M167 -12T94 59T21 286Q21 399 53 487Q75 513 121 545T214 599T281 622Q430 622 503 551T576 323Q576 208 545 115Q523 91 476 61T383 10T316 -12Q167 -12 94 59ZM319 75T350 85T385 99Q397 185 397 304Q397
386 390 434T359 509T291 536Q251 536 232 527Q218 520 209 459T199 307Q199 217 209 167T242 96T309 75Q319 75 350 85Z" />
<glyph unicode="P" glyph-name="P" horiz-adv-x="565" d="M25 65L85 89V521L25 545V610H388Q466 610 507 565T549 420Q549 311 496 261T359 210H256V96L353 68V0H25V65ZM309 302Q339 302 355 308T380 335T389 403Q389 463 375 494T332 526L256 517V302H309Z" />
<glyph unicode="Q" glyph-name="Q" horiz-adv-x="598" d="M524 92T479 63T387 11L575 -45L531 -157H465L226 -4Q123 15 72 86T21 286Q21 399 53 487Q75 513 121 545T214 599T281 622Q430 622 503 551T576 323Q576 208 545 115Q524 92 479 63ZM218 520T209 459T199
307Q199 217 209 167T242 96T309 75Q319 75 350 85T385 99Q397 185 397 304Q397 386 390 434T359 509T291 536Q251 536 232 527Q218 520 209 459Z" />
<glyph unicode="R" glyph-name="R" horiz-adv-x="605" d="M25 65L85 89V521L25 545V610H380Q459 610 500 571T541 439Q541 376 516 333T447 266V260Q461 238 504 165L550 89L604 65V0H400L376 58Q326 184 301 241H256V96L317 68V0H25V65ZM298 329Q325 329 339
334T362 359T370 417Q370 526 321 526L256 517V329H298Z" />
<glyph unicode="S" glyph-name="S" horiz-adv-x="458" d="M208 -12T144 -7T62 0Q51 2 22 4L29 199H112L132 97Q228 80 262 80Q266 80 274 97T283 127Q282 160 258 183T181 239Q132 267 101 291T48 351T26 436Q26 461 30 485Q43 509 82 541T163 598T225 622Q244
622 309 615T429 600L421 418H339L326 511Q296 517 257 523T201 530Q194 530 189 516T184 483Q184 449 207 423T273 371Q291 361 299 355Q347 327 376 305T426 251T447 176Q447 154 442 124Q427 97 389 65T311 10T248 -12Q208 -12 144 -7Z" />
<glyph unicode="T" glyph-name="T" horiz-adv-x="566" d="M118 65L198 89V523L117 514L104 398H23L10 610H557L544 398H462L449 514L368 523V90L450 66V0H118V65Z" />
<glyph unicode="U" glyph-name="U" horiz-adv-x="657" d="M160 -12T118 38T76 198V521L15 545V610H299V538L243 512V230Q243 186 250 164T270 135T303 128Q323 128 360 138T405 150V512L349 538V610H633V545L572 521V89L633 65V0H433L411 61Q373 40 322 14T264
-12Q160 -12 118 38Z" />
<glyph unicode="V" glyph-name="V" horiz-adv-x="631" d="M242 -12T223 0L69 525L7 545V610H310V538L248 520L295 326Q307 275 333 155H343Q356 206 384 331T424 520L361 538V610H628V545L566 525L519 364Q445 119 414 6Q385 3 330 -3T245 -12Q242 -12 223 0Z" />
<glyph unicode="W" glyph-name="W" horiz-adv-x="943" d="M224 -12T205 0L69 525L7 545V610H299V538L248 520L285 326L316 155H326Q382 331 417 460L401 525L348 546V610H633V537L571 520L611 326L646 155H656Q669 206 697 331T737 520L682 538V610H941V545L879
525L832 364Q758 119 727 6Q698 3 643 -3T558 -12Q555 -12 536 0L475 241H464L396 6Q367 3 312 -3T227 -12Q224 -12 205 0Z" />
<glyph unicode="X" glyph-name="X" horiz-adv-x="651" d="M-2 65L59 89L218 318L76 521L25 545V610H319V538L268 527L344 395H352L416 527L366 538V610H626V545L565 521L429 325L601 89L655 65V0H333V76L401 92L305 245H296L213 92L279 76V0H-2V65Z" />
<glyph unicode="Y" glyph-name="Y" horiz-adv-x="579" d="M140 65L205 89V239L57 525L-5 545V610H282V538L228 520Q295 362 303 344H313Q330 378 388 520L333 538V610H584V545L522 525Q489 456 375 241V89L440 65V0H140V65Z" />
<glyph unicode="Z" glyph-name="Z" horiz-adv-x="508" d="M17 65L269 516L135 530L123 419H40L27 610H470V545L221 96L384 80L402 204H482L493 0H17V65Z" />
<glyph unicode="[" glyph-name="bracketleft" horiz-adv-x="287" d="M52 -110V678L255 689L262 622L189 604V-28L262 -47L256 -121L52 -110Z" />
<glyph unicode="\" glyph-name="backslash" horiz-adv-x="339" d="M8 687H128L331 -118H211L8 687Z" />
<glyph unicode="]" glyph-name="bracketright" horiz-adv-x="287" d="M25 -54L98 -36V596L25 615L31 689L235 678V-110L32 -121L25 -54Z" />
<glyph unicode="^" glyph-name="asciicircum" horiz-adv-x="538" d="M42 282L206 603H332L496 282L401 235L269 496L137 235L42 282Z" />
<glyph unicode="_" glyph-name="underscore" horiz-adv-x="426" d="M17 -73H409V-177H17V-73Z" />
<glyph unicode="`" glyph-name="grave" horiz-adv-x="224" d="M6 600L0 648L81 721L224 569L180 517L6 600Z" />
<glyph unicode="a" glyph-name="a" horiz-adv-x="495" d="M117 -12T71 46T24 206Q24 249 31 293T50 363Q63 378 102 404T181 451T235 472Q245 472 326 459T440 441V87L482 72V9Q344 -12 329 -12Q324 -12 307 5T290 29V53Q206 -12 200 -12Q117 -12 71 46ZM236 95T259
107T284 120V367Q226 405 215 399Q190 385 190 219Q190 168 202 132T230 95Q236 95 259 107Z" />
<glyph unicode="b" glyph-name="b" horiz-adv-x="485" d="M240 -12T160 2T45 25V562L3 576V639Q28 644 89 652T162 660Q167 660 184 643T201 619L193 412L200 410Q280 472 286 472Q368 472 414 412T461 248Q461 206 454 164T435 97Q422 82 383 56T304 9T250 -12Q240
-12 160 2ZM282 69T288 112T295 234Q295 288 283 326T255 365Q251 365 201 340V93Q223 78 243 68T271 62Q282 69 288 112Z" />
<glyph unicode="c" glyph-name="c" horiz-adv-x="388" d="M118 -12T71 46T24 205Q24 249 31 291T50 360Q63 375 101 402T179 451T232 472Q260 472 298 466T367 449L364 295H278L260 376Q236 391 220 391Q212 391 208 387Q198 379 193 337T187 231Q187 172 203
137T253 101H367V37Q360 35 298 12T202 -12Q118 -12 71 46Z" />
<glyph unicode="d" glyph-name="d" horiz-adv-x="495" d="M117 -12T71 46T24 205Q24 249 32 293T50 364Q63 379 102 405T181 452T235 473L259 470L285 467V562L243 577V640Q392 661 407 661Q412 661 429 644T446 620L440 437V87L482 72V9Q344 -12 329 -12Q324
-12 307 5T290 29V53Q206 -12 200 -12Q117 -12 71 46ZM237 95T284 120V367Q279 370 255 385T219 400Q190 400 190 219Q190 168 202 132T230 95Q237 95 284 120Z" />
<glyph unicode="e" glyph-name="e" horiz-adv-x="438" d="M129 -13T77 45T24 204Q24 248 32 292T50 363Q63 378 102 405T181 452T236 473Q298 473 337 451T398 374T419 225L184 205Q184 157 202 127T249 97L403 104V40Q355 23 296 5T222 -13Q129 -13 77 45ZM271
286Q271 331 262 362T237 398Q230 400 221 400T208 400Q201 399 194 363T184 274L271 286Z" />
<glyph unicode="f" glyph-name="f" horiz-adv-x="315" d="M100 -12T78 6T56 30V380H1V445L56 464V503Q56 523 87 561T156 630T215 661Q236 661 275 659T351 654Q356 649 363 632T371 609Q371 605 356 568T338 528Q240 572 226 572Q221 572 217 560T213 528L212
459H318V379H212V92L274 70V14Q120 -12 105 -12Q100 -12 78 6Z" />
<glyph unicode="g" glyph-name="g" horiz-adv-x="461" d="M184 -185T115 -175T13 -156L22 -69L145 41Q89 55 56 103T23 226Q23 262 31 301T49 364Q69 388 134 430T218 473Q231 473 363 447L421 436V-22Q421 -53 384 -91T298 -157T218 -185Q184 -185 115 -175ZM234
120T269 147V367Q264 370 241 386T211 400Q199 394 193 354T186 245Q186 190 198 155T227 120Q234 120 269 147ZM259 -117T266 -81T274 -2V44L268 47Q224 3 144 -81V-89Q155 -95 195 -106T248 -117Q259 -117 266 -81Z" />
<glyph unicode="h" glyph-name="h" horiz-adv-x="502" d="M88 -12T67 6T46 30V562L4 577V640Q148 661 163 661Q168 661 185 644T202 620L194 412L201 411Q227 431 256 451T290 472Q369 472 408 439T447 324V88L488 73V11Q353 -12 340 -12Q333 -12 312 5T291 30V322Q291
347 280 356T257 365Q251 365 202 342V88L243 73V11Q108 -12 94 -12Q88 -12 67 6Z" />
<glyph unicode="i" glyph-name="i" horiz-adv-x="269" d="M100 -12T79 6T57 30V374L15 388V451Q158 472 173 472Q178 472 195 454T213 430V87L254 73V11Q121 -12 107 -12Q100 -12 79 6ZM47 659L176 666L200 637L189 537H57L47 659Z" />
<glyph unicode="j" glyph-name="j" horiz-adv-x="255" d="M58 654L192 660L215 632L206 531H69L58 654ZM62 -185T20 -179T-63 -163V-90Q-46 -90 -7 -86T37 -79Q50 -72 54 -45T59 12V374L14 388V451Q159 472 174 472Q179 472 196 454T214 430V-23Q214 -52 188 -90T129
-157T78 -185Q62 -185 20 -179Z" />
<glyph unicode="k" glyph-name="k" horiz-adv-x="496" d="M88 -12T67 6T46 30V562L4 577V640Q148 661 163 661Q168 661 185 644T202 620V88L240 73V11Q109 -12 94 -12Q88 -12 67 6ZM353 -12T335 -1T312 18L219 206V263L324 381L259 390V459L453 469Q459 469 468
443T478 406L344 257L450 88L492 73V11Q368 -12 359 -12Q353 -12 335 -1Z" />
<glyph unicode="l" glyph-name="l" horiz-adv-x="257" d="M88 -12T67 6T46 30V562L4 577V640Q148 661 163 661Q168 661 185 644T202 620V88L243 73V11Q109 -12 94 -12Q88 -12 67 6Z" />
<glyph unicode="m" glyph-name="m" horiz-adv-x="739" d="M99 -12T78 6T57 30V372L15 387V450Q153 471 169 471Q174 471 190 454T207 430V407Q230 427 258 449T292 471Q403 471 434 407Q457 428 483 449T515 471Q602 471 643 438T684 323V88L725 73V11Q590 -12
577 -12Q571 -12 550 6T528 30V321Q528 347 517 355T493 364Q488 364 449 341V88L486 73V11Q354 -12 342 -12Q336 -12 315 6T293 30V321Q293 347 282 355T258 364Q253 364 213 341V88L250 73V11Q119 -12 105 -12Q99 -12 78 6Z" />
<glyph unicode="n" glyph-name="n" horiz-adv-x="513" d="M99 -12T78 6T57 30V373L15 388V451Q153 472 169 472Q174 472 190 455T207 431V408Q231 428 263 450T301 472Q380 472 419 439T458 324V88L499 73V11Q364 -12 351 -12Q345 -12 324 6T302 30V322Q302 365
268 365Q265 365 233 351L213 342V88L254 73V11Q120 -12 105 -12Q99 -12 78 6Z" />
<glyph unicode="o" glyph-name="o" horiz-adv-x="499" d="M24 -12T24 207Q24 249 32 292T50 360Q63 376 103 403T184 451T239 473Q355 473 415 417T475 254Q475 207 468 165T449 97Q436 82 397 56T319 9T265 -12Q24 -12 24 207ZM270 66T298 79Q309 147 309 239Q309
307 292 352T235 397Q222 397 214 394Q203 390 197 343T190 222Q190 136 211 101T265 65Q270 66 298 79Z" />
<glyph unicode="p" glyph-name="p" horiz-adv-x="497" d="M84 -185T67 -168T50 -144L57 34V373L15 388V451L37 454Q150 472 168 472Q173 472 190 455T207 431V406Q231 425 262 448T297 472Q379 472 426 412T473 248Q473 206 466 164T447 97Q434 82 395 56T316
9T262 -12Q250 -12 212 -6V-85L255 -100V-163Q230 -169 167 -177T89 -185Q84 -185 67 -168ZM306 78T306 234Q306 288 295 326T267 365Q263 365 213 340V93Q233 78 254 68T283 62Q306 78 306 234Z" />
<glyph unicode="q" glyph-name="q" horiz-adv-x="487" d="M318 -185T301 -168T284 -144L292 48L285 50Q205 -12 200 -12Q117 -12 71 46T24 205Q24 249 31 293T50 363Q63 378 102 405T181 452T235 473Q245 473 395 444L440 436V-86L482 -101V-163Q338 -185 323
-185Q318 -185 301 -168ZM237 95T284 120V367Q226 405 215 399Q190 383 190 219Q190 168 202 132T230 95Q237 95 284 120Z" />
<glyph unicode="r" glyph-name="r" horiz-adv-x="376" d="M99 -12T78 6T57 30V374L15 388V451Q152 472 167 472Q172 472 189 454T207 430V385Q235 419 261 447T292 476Q311 476 332 472T366 462Q367 459 373 443T379 412Q379 398 358 352T330 306Q328 307 304
319T266 331Q261 331 240 324T213 314V99L282 80V14Q122 -12 105 -12Q99 -12 78 6Z" />
<glyph unicode="s" glyph-name="s" horiz-adv-x="394" d="M215 -12T138 -8T20 1L23 169H97L118 89Q143 80 176 73T223 65Q229 65 234 81T239 104Q239 122 225 134T177 164Q151 177 137 185Q69 224 46 254T23 326Q23 357 30 379Q51 406 96 439T160 472Q200 472
263 470T356 464L353 320H271L264 376Q255 379 215 387T165 395Q158 395 156 388T153 373Q153 356 174 342T234 305Q240 302 284 277T355 222T381 161Q381 125 373 101Q362 82 337 55T285 8T241 -12Q215 -12 138 -8Z" />
<glyph unicode="t" glyph-name="t" horiz-adv-x="346" d="M142 -12T122 5T87 46T71 84V380H-2V438L71 465L169 580Q178 584 227 565V459H328V378H227V126Q227 89 249 89L340 83V8Q294 1 230 -5T153 -12Q142 -12 122 5Z" />
<glyph unicode="u" glyph-name="u" horiz-adv-x="513" d="M134 -12T95 21T56 136V372L15 387V449Q150 472 162 472Q169 472 190 455T212 430V138Q212 95 246 95Q253 95 300 118V372L259 387V449Q393 472 407 472Q414 472 435 455T456 430V87L498 72V9Q359 -12
344 -12Q339 -12 323 5T306 29V52Q281 32 250 10T212 -12Q134 -12 95 21Z" />
<glyph unicode="v" glyph-name="v" horiz-adv-x="457" d="M159 -13T141 -1L45 374L0 387V450Q136 472 146 472Q151 472 171 457T193 435L235 211L244 126H255L315 383L251 391V459L424 472Q430 472 443 452T457 424L326 6Q171 -13 162 -13Q159 -13 141 -1Z" />
<glyph unicode="w" glyph-name="w" horiz-adv-x="705" d="M143 -13T124 -1L43 374L-2 387V450Q133 472 142 472Q148 472 168 457T190 435L228 211L241 135H251L319 310L296 374L249 387V450Q383 472 393 472Q399 472 419 457T441 435L489 211L506 135H516L563
383L496 391V459L662 472Q668 472 681 452T695 424L590 6Q444 -13 436 -13Q432 -13 414 -1L363 171H355L299 6Q154 -13 146 -13Q143 -13 124 -1Z" />
<glyph unicode="x" glyph-name="x" horiz-adv-x="482" d="M25 -12T18 11T10 43L154 236L65 373L21 384V451Q159 471 168 471Q174 471 187 459T204 437L278 305L321 387L276 394V459Q440 471 450 471Q455 471 462 448T469 415L333 235L428 88L475 76V9Q340 -12
330 -12Q323 -12 309 1T290 23L210 164L161 76L211 69V0Q41 -12 29 -12Q25 -12 18 11Z" />
<glyph unicode="y" glyph-name="y" horiz-adv-x="457" d="M198 -185T182 -157T168 -124L212 2L164 -4Q161 -4 141 8L45 374L1 387V450Q136 472 146 472Q151 472 171 457T194 435L236 213L244 116H254L317 383L252 391V459L424 472Q430 472 444 452T457 424L327
16L305 -91L357 -109L355 -167Q218 -185 203 -185Q198 -185 182 -157Z" />
<glyph unicode="z" glyph-name="z" horiz-adv-x="417" d="M32 7T23 22T10 48Q107 207 198 368L195 380L116 386L105 318H29L20 459H359Q366 450 375 436T387 413L272 206Q260 185 245 158T211 97V83L304 77L318 164H396L399 0H38Q32 7 23 22Z" />
<glyph unicode="{" glyph-name="braceleft" horiz-adv-x="333" d="M97 -110V173L25 235V329L97 392V679L300 689L306 622L233 604V336L156 283L233 229V-28L306 -47L301 -121L97 -110Z" />
<glyph unicode="|" glyph-name="bar" horiz-adv-x="240" d="M62 678H178V-183H62V678Z" />
<glyph unicode="}" glyph-name="braceright" horiz-adv-x="333" d="M26 -54L99 -36V229L176 283L99 336V596L26 615L32 689L236 678V392L307 329V235L236 173V-111L32 -121L26 -54Z" />
<glyph unicode="~" glyph-name="asciitilde" horiz-adv-x="601" d="M350 252T260 277Q252 279 227 285T188 291Q173 291 159 282T123 256L77 312Q103 344 141 376T198 408Q245 408 337 383Q397 368 414 368Q427 368 439 375T462 392T477 404L523 348Q499 317 461
285T402 252Q350 252 260 277Z" />
<glyph unicode="&#xa0;" glyph-name="uni00A0" horiz-adv-x="166" />
<glyph unicode="&#xa1;" glyph-name="exclamdown" horiz-adv-x="311" d="M80 457Q156 466 199 466Q206 466 218 453T230 434L221 334H88L80 457ZM99 -192T87 -181T74 -164L101 258L123 261Q171 269 186 269Q190 269 200 262T211 252L237 -170Q117 -192 104 -192Q99
-192 87 -181Z" />
<glyph unicode="&#xa2;" glyph-name="cent" horiz-adv-x="412" d="M206 212T222 177T272 142H386V78Q379 76 343 63T273 39V-60H177V34Q113 48 78 103T42 246Q42 289 50 331T69 401Q80 414 111 436T176 479V597H271L270 512Q330 509 386 490L383 336H296L279 417Q255
432 239 432Q231 432 227 428Q217 420 212 378T206 272Q206 212 222 177Z" />
<glyph unicode="&#xa3;" glyph-name="sterling" horiz-adv-x="577" d="M535 0H222Q176 0 125 -7T68 -15L51 63Q86 72 100 87T118 134T121 239H52L59 318H121Q123 419 140 473T197 549T305 571Q344 571 405 565T529 551L514 364H435L430 461Q394 469 358 475T313
481Q295 481 289 461T282 384Q282 343 283 318H398L390 239H284Q282 185 272 155T241 98L431 79L446 194H526L535 0Z" />
<glyph unicode="&#xa4;" glyph-name="currency" horiz-adv-x="704" d="M77 158L152 235Q120 291 120 364Q120 435 155 497L77 579L135 638L210 560Q275 612 360 612Q442 612 501 567L569 638L627 579L556 505Q592 447 592 374Q592 300 552 236L627 157L569 98L495
174Q433 126 351 126Q266 126 206 172L135 98L77 158ZM411 243T439 276T468 369Q468 425 440 460T357 495Q301 495 272 462T243 369Q243 314 271 279T355 243Q411 243 439 276Z" />
<glyph unicode="&#xa5;" glyph-name="yen" horiz-adv-x="625" d="M156 64L231 80V141H104L111 221H230L211 259H104L111 339H172L107 469L27 490V555H311L312 482L267 473L326 327H338L396 469L345 482V555H598V490L521 471L452 339H529L522 259H410L395 231V221H529L522
141H395V86L471 71L472 -1H157L156 64Z" />
<glyph unicode="&#xa6;" glyph-name="brokenbar" horiz-adv-x="240" d="M62 678H178V307H62V678ZM62 185H178V-184H62V185Z" />
<glyph unicode="&#xa7;" glyph-name="section" horiz-adv-x="537" d="M250 -104T184 -102T79 -95L91 74H160L169 -12Q194 -17 219 -20T262 -24Q267 -24 272 -13T278 10Q278 37 258 59T198 107Q139 145 109 178T78 258Q78 283 85 303Q109 335 162 370Q113 416 113
477Q113 500 119 519Q128 537 161 562T230 605T281 624Q308 623 357 619T451 611L443 447H374L363 526Q282 548 267 548Q260 548 251 535T241 510Q241 487 266 465T342 411Q405 370 439 336T473 261Q473 232 464 207Q453 184 393 131Q443 88 443 36Q443 4 435 -20Q425
-37 398 -57T340 -90T294 -104Q250 -104 184 -102ZM320 205T320 221Q320 251 299 271T237 318Q228 302 228 287Q228 261 250 239T313 191Q320 205 320 221Z" />
<glyph unicode="&#xa8;" glyph-name="dieresis" horiz-adv-x="355" d="M0 659L129 666L153 637L142 537H10L0 659ZM202 659L331 666L355 637L344 537H212L202 659Z" />
<glyph unicode="&#xa9;" glyph-name="copyright" horiz-adv-x="868" d="M311 58T231 107T111 241T72 431Q72 536 113 620T236 754T438 804Q557 804 637 755T757 621T796 431Q796 326 755 242T632 108T430 58Q311 58 231 107ZM521 149T580 186T668 287T697 429Q697
509 668 573T580 675T434 713Q347 713 289 676T202 575T173 433Q173 353 201 289T289 187T434 149Q521 149 580 186ZM351 256T318 303T285 429Q285 492 299 541Q316 563 362 592T424 622Q448 622 541 613L535 476H488L480 551Q425 563 412 563Q398 563 391 529T383
448Q383 380 397 347T449 315L528 322L532 275Q502 267 467 262T415 256Q351 256 318 303Z" />
<glyph unicode="&#xaa;" glyph-name="ordfeminine" horiz-adv-x="426" d="M101 319T65 363T28 484Q28 515 33 548T46 601Q63 619 118 652T189 686Q203 686 267 678T366 662V395L398 384V335Q371 331 323 325T267 319Q263 319 250 332T237 350V371Q170 319 164
319Q101 319 65 363ZM201 405T233 425V605Q228 608 209 618T185 629Q179 629 174 590T169 496Q169 458 177 432T197 405Q201 405 233 425Z" />
<glyph unicode="&#xab;" glyph-name="guillemotleft" horiz-adv-x="507" d="M27 188V275L184 430L242 389L172 239V223L241 72L183 30L27 188ZM246 188V275L402 430L460 389L391 239V223L460 72L402 30L246 188Z" />
<glyph unicode="&#xac;" glyph-name="logicalnot" horiz-adv-x="465" d="M443 127H333V232H12V338H443V127Z" />
<glyph unicode="&#xad;" glyph-name="uni00AD" horiz-adv-x="312" d="M32 297H280V191H32V297Z" />
<glyph unicode="&#xae;" glyph-name="registered" horiz-adv-x="693" d="M250 218T187 257T93 362T62 511Q62 593 94 659T192 765T350 804Q443 804 506 765T600 660T631 511Q631 429 599 363T501 257T343 218Q250 218 187 257ZM443 301T493 360T543 511Q543 602
493 662T347 722Q250 722 201 663T151 512Q151 421 201 361T347 301Q443 301 493 360ZM229 406L254 410V618L229 625V654H370Q454 654 454 576Q454 547 442 525T412 493V485L452 417L477 408L479 378H398L348 483H324V412L347 408L348 378H229V406ZM345 524Q364
524 373 535T382 570Q382 596 377 607T356 619L325 616V524H345Z" />
<glyph unicode="&#xaf;" glyph-name="overscore" horiz-adv-x="308" d="M0 644H308V547H0V644Z" />
<glyph unicode="&#xb0;" glyph-name="degree" horiz-adv-x="323" d="M99 366T66 402T32 491Q32 526 48 556T93 606T163 625Q224 625 257 589T291 500Q291 465 275 435T230 385T160 366Q99 366 66 402ZM181 446T193 460T206 496Q206 517 194 531T161 545Q140 545
128 531T115 495Q115 474 127 460T160 446Q181 446 193 460Z" />
<glyph unicode="&#xb1;" glyph-name="plusminus" horiz-adv-x="546" d="M468 376V277H327V126H218V277H77V376H219V526H328V376H468ZM77 76H468V-23H77V76Z" />
<glyph unicode="&#xb2;" glyph-name="uni00B2" horiz-adv-x="427" d="M384 495L382 363H54L46 412L173 559Q198 587 198 619Q198 629 194 635T183 642Q173 642 133 623L127 561H66L61 696Q173 715 231 715Q293 715 327 694T361 622Q361 583 329 544L248 447V438H316L325
495H384Z" />
<glyph unicode="&#xb3;" glyph-name="uni00B3" horiz-adv-x="449" d="M352 546T370 527T388 480Q388 451 367 422T308 375T223 356Q211 356 159 361T77 371L80 428H105Q123 428 154 428T189 428Q203 429 212 442T221 474Q221 488 216 497T202 507H144V562Q181
566 199 587T218 631Q218 641 215 649T205 657Q195 657 142 636L136 590H76L74 706Q180 717 228 717Q372 717 372 633Q372 592 317 562L318 554Q352 546 370 527Z" />
<glyph unicode="&#xb4;" glyph-name="acute" horiz-adv-x="224" d="M0 569L143 721L224 648L218 600L44 517L0 569Z" />
<glyph unicode="&#xb5;" glyph-name="uni00B5" horiz-adv-x="548" d="M524 15Q448 -8 431 -8Q408 -8 376 6T324 43Q244 -8 237 -8Q223 -8 201 -6V-60Q201 -92 212 -116T236 -147Q243 -150 263 -152T304 -154L315 -211Q287 -221 257 -230T217 -240Q202 -240 164
-213T96 -148T66 -81V379L26 391L25 453Q61 458 107 464T175 473Q182 473 200 455T218 429V132Q218 80 270 80Q283 80 306 89V379L266 391L265 453Q299 459 345 465T416 473Q422 473 440 455T459 429V120Q459 89 471 80T514 67L524 15Z" />
<glyph unicode="&#xb6;" glyph-name="paragraph" horiz-adv-x="807" d="M501 611L731 610V534L638 516V95L730 67V0H501V611ZM236 67L301 90V172L235 173Q145 174 97 242T48 419Q48 508 92 559T222 610H439V0H236V67Z" />
<glyph unicode="&#xb7;" glyph-name="middot" horiz-adv-x="236" d="M75 249T58 267T41 295L38 378Q63 385 101 391T157 397Q164 397 181 378T198 351L190 264Q171 260 136 256T82 249Q75 249 58 267Z" />
<glyph unicode="&#xb8;" glyph-name="cedilla" horiz-adv-x="193" d="M0 -176Q41 -159 59 -149T77 -125Q77 -114 61 -106T18 -95L8 -55L31 11L104 8L103 -39Q145 -47 169 -69T193 -116Q193 -146 179 -172Q169 -182 123 -202T32 -239L0 -176Z" />
<glyph unicode="&#xb9;" glyph-name="uni00B9" horiz-adv-x="421" d="M374 421V363H73V423L156 436V616L68 610V676L236 719L306 687V431L374 421Z" />
<glyph unicode="&#xba;" glyph-name="ordmasculine" horiz-adv-x="415" d="M130 317T79 358T28 484Q28 514 34 546T47 598Q62 617 120 651T197 686Q287 686 337 643T387 517Q387 485 382 454T368 403Q353 385 296 351T221 317Q130 317 79 358ZM240 392Q246 425
246 506Q246 554 240 581T218 619Q213 622 203 624T187 627Q181 627 175 588T169 496Q169 380 217 380L240 392Z" />
<glyph unicode="&#xbb;" glyph-name="guillemotright" horiz-adv-x="507" d="M48 72L117 223V239L47 389L105 430L262 275V188L106 30L48 72ZM266 72L336 223V239L266 389L324 430L480 275V188L325 30L266 72Z" />
<glyph unicode="&#xbc;" glyph-name="onequarter" horiz-adv-x="1013" d="M374 585V527H73V587L156 600V780L68 774V840L236 883L306 851V595L374 585ZM947 70H889V0H760V70H581L567 143L680 344H889V150H947V70ZM760 150V261H753L698 156L699 150H760ZM590 624H708L418
-13H299L590 624Z" />
<glyph unicode="&#xbd;" glyph-name="onehalf" horiz-adv-x="976" d="M374 585V527H73V587L156 600V780L68 774V840L236 883L306 851V595L374 585ZM584 624H702L412 -13H293L584 624ZM933 132L931 0H603L595 49L722 196Q747 224 747 256Q747 266 743 272T732 279Q722
279 682 260L676 198H615L610 333Q722 352 780 352Q842 352 876 331T910 259Q910 220 878 181L797 84V75H865L874 132H933Z" />
<glyph unicode="&#xbe;" glyph-name="threequarters" horiz-adv-x="981" d="M352 710T370 691T388 644Q388 615 367 586T308 539T223 520Q211 520 159 525T77 535L80 592H105Q123 592 154 592T189 592Q203 593 212 606T221 638Q221 652 216 661T202 671H144V726Q181
730 199 751T218 795Q218 805 215 813T205 821Q195 821 142 800L136 754H76L74 870Q180 881 228 881Q372 881 372 797Q372 756 317 726L318 718Q352 710 370 691ZM915 70H857V0H728V70H549L535 143L648 344H857V150H915V70ZM728 150V261H721L666 156L667 150H728ZM564
624H682L392 -13H273L564 624Z" />
<glyph unicode="&#xbf;" glyph-name="questiondown" horiz-adv-x="507" d="M250 329L241 454Q301 460 352 460Q359 460 373 446T387 425L374 329H250ZM448 -170Q318 -199 237 -199Q154 -199 110 -166T66 -56Q66 -20 79 8T113 58T170 112L199 139Q230 167 243 194T258
269Q332 280 343 280Q347 280 357 273T367 262L371 178Q373 138 353 108T293 42Q249 4 232 -22T215 -73Q215 -89 221 -102T240 -116Q258 -116 340 -95L360 12H441L448 -170Z" />
<glyph unicode="&#xc0;" glyph-name="Agrave" horiz-adv-x="646" d="M-4 65L58 85L226 604Q253 608 312 614T394 622Q397 622 417 610L586 85L648 65V0H339V72L407 90L383 177H220L200 90L270 72V0H-4V65ZM360 264L306 482H296L241 264H360ZM205 694L188 740L242
830L426 720L404 658L205 694Z" />
<glyph unicode="&#xc1;" glyph-name="Aacute" horiz-adv-x="646" d="M-4 65L58 85L226 604Q253 608 312 614T394 622Q397 622 417 610L586 85L648 65V0H339V72L407 90L383 177H220L200 90L270 72V0H-4V65ZM360 264L306 482H296L241 264H360ZM204 720L389 826L442
740L424 694L226 658L204 720Z" />
<glyph unicode="&#xc2;" glyph-name="Acircumflex" horiz-adv-x="646" d="M-4 65L58 85L226 604Q253 608 312 614T394 622Q397 622 417 610L586 85L648 65V0H339V72L407 90L383 177H220L200 90L270 72V0H-4V65ZM360 264L306 482H296L241 264H360ZM156 714L273
829H367L485 714L435 659L325 714H315L205 659L156 714Z" />
<glyph unicode="&#xc3;" glyph-name="Atilde" horiz-adv-x="646" d="M-4 65L58 85L226 604Q253 608 312 614T394 622Q397 622 417 610L586 85L648 65V0H339V72L407 90L383 177H220L200 90L270 72V0H-4V65ZM360 264L306 482H296L241 264H360ZM369 663T350 670T300
691Q288 697 277 701T260 706Q244 706 207 672L158 724Q174 747 207 780T257 813Q275 813 293 806T345 785Q377 769 386 769Q401 769 439 804L488 751Q473 729 439 696T389 663Q369 663 350 670Z" />
<glyph unicode="&#xc4;" glyph-name="Adieresis" horiz-adv-x="646" d="M-4 65L58 85L226 604Q253 608 312 614T394 622Q397 622 417 610L586 85L648 65V0H339V72L407 90L383 177H220L200 90L270 72V0H-4V65ZM360 264L306 482H296L241 264H360ZM136 783L265 790L289
761L278 661H146L136 783ZM350 783L479 790L503 761L492 661H360L350 783Z" />
<glyph unicode="&#xc5;" glyph-name="Aring" horiz-adv-x="646" d="M-4 65L58 85L226 604Q253 608 312 614T394 622Q397 622 417 610L586 85L648 65V0H339V72L407 90L383 177H220L200 90L270 72V0H-4V65ZM360 264L306 482H296L241 264H360ZM266 657T238 683T210
770Q210 822 239 851T321 880Q376 880 404 854T432 767Q432 715 403 686T321 657Q266 657 238 683ZM334 729T344 736Q348 747 348 769Q348 791 342 799T321 808Q308 808 298 801Q294 790 294 768Q294 746 300 738T321 729Q334 729 344 736Z" />
<glyph unicode="&#xc6;" glyph-name="AE" horiz-adv-x="891" d="M1 65L64 85L318 521L256 545V610H856L843 419H762L749 530L605 516V360L740 355V271L605 264V96L761 80L779 195H860L864 0H374V65L435 89V178H251L206 90L275 72V0H1V65ZM435 264V508H420L295 264H435Z" />
<glyph unicode="&#xc7;" glyph-name="Ccedilla" horiz-adv-x="488" d="M416 4T307 -8L306 -39Q348 -47 372 -69T396 -116Q396 -146 382 -172Q372 -182 326 -202T235 -239L203 -176Q244 -159 262 -149T280 -125Q280 -114 264 -106T221 -95L211 -55L227 -10Q123
0 72 71T21 285Q21 399 53 487Q75 513 121 545T214 599T281 622Q293 622 421 606L461 601L449 393H368L353 514Q333 521 304 526T257 531Q239 531 232 526Q218 518 209 458T199 309Q199 189 226 142T312 94H356L375 217H454L459 14Q416 4 307 -8Z" />
<glyph unicode="&#xc8;" glyph-name="Egrave" horiz-adv-x="541" d="M25 65L85 89V521L25 545V610H510L497 419H415L402 530L256 516V360L391 355V271L256 264V96L411 80L429 195H511L515 0H25V65ZM168 694L151 740L205 830L389 720L367 658L168 694Z" />
<glyph unicode="&#xc9;" glyph-name="Eacute" horiz-adv-x="541" d="M25 65L85 89V521L25 545V610H510L497 419H415L402 530L256 516V360L391 355V271L256 264V96L411 80L429 195H511L515 0H25V65ZM167 720L352 826L405 740L387 694L189 658L167 720Z" />
<glyph unicode="&#xca;" glyph-name="Ecircumflex" horiz-adv-x="541" d="M25 65L85 89V521L25 545V610H510L497 419H415L402 530L256 516V360L391 355V271L256 264V96L411 80L429 195H511L515 0H25V65ZM118 714L235 829H329L447 714L397 659L287 714H277L167
659L118 714Z" />
<glyph unicode="&#xcb;" glyph-name="Edieresis" horiz-adv-x="541" d="M25 65L85 89V521L25 545V610H510L497 419H415L402 530L256 516V360L391 355V271L256 264V96L411 80L429 195H511L515 0H25V65ZM98 783L227 790L251 761L240 661H108L98 783ZM312 783L441
790L465 761L454 661H322L312 783Z" />
<glyph unicode="&#xcc;" glyph-name="Igrave" horiz-adv-x="350" d="M25 65L89 89V521L25 545V610H325V544L260 520V90L325 66V0H25V65ZM59 694L42 740L96 830L280 720L258 658L59 694Z" />
<glyph unicode="&#xcd;" glyph-name="Iacute" horiz-adv-x="350" d="M25 65L89 89V521L25 545V610H325V544L260 520V90L325 66V0H25V65ZM58 720L243 826L296 740L278 694L80 658L58 720Z" />
<glyph unicode="&#xce;" glyph-name="Icircumflex" horiz-adv-x="350" d="M25 65L89 89V521L25 545V610H325V544L260 520V90L325 66V0H25V65ZM10 714L127 829H221L339 714L289 659L179 714H169L59 659L10 714Z" />
<glyph unicode="&#xcf;" glyph-name="Idieresis" horiz-adv-x="350" d="M25 65L89 89V521L25 545V610H325V544L260 520V90L325 66V0H25V65ZM-10 783L119 790L143 761L132 661H0L-10 783ZM204 783L333 790L357 761L346 661H214L204 783Z" />
<glyph unicode="&#xd0;" glyph-name="Eth" horiz-adv-x="606" d="M429 610T477 582T555 490T585 321Q585 157 530 79T374 0H25V65L85 89V278H20V337H85V521L25 545V610H374Q429 610 477 582ZM371 82T390 143T410 312Q410 404 390 466T337 529L256 521V337H348V278H256V91L337
82Q371 82 390 143Z" />
<glyph unicode="&#xd1;" glyph-name="Ntilde" horiz-adv-x="654" d="M412 -12T392 0L282 214Q241 291 212 386H203L212 132V96L281 72V0H25V65L85 89V521L25 545V610H274L402 354Q428 305 453 216H462L453 482V514L385 538V610H641V545L580 521V6Q552 3 498 -3T415
-12Q412 -12 392 0ZM379 663T360 670T310 691Q298 697 287 701T270 706Q254 706 217 672L168 724Q184 747 217 780T267 813Q285 813 303 806T355 785Q387 769 396 769Q411 769 449 804L498 751Q483 729 449 696T399 663Q379 663 360 670Z" />
<glyph unicode="&#xd2;" glyph-name="Ograve" horiz-adv-x="597" d="M167 -12T94 59T21 286Q21 399 53 487Q75 513 121 545T214 599T281 622Q430 622 503 551T576 323Q576 208 545 115Q523 91 476 61T383 10T316 -12Q167 -12 94 59ZM319 75T350 85T385 99Q397
185 397 304Q397 386 390 434T359 509T291 536Q251 536 232 527Q218 520 209 459T199 307Q199 217 209 167T242 96T309 75Q319 75 350 85ZM186 694L169 740L223 830L407 720L385 658L186 694Z" />
<glyph unicode="&#xd3;" glyph-name="Oacute" horiz-adv-x="597" d="M167 -12T94 59T21 286Q21 399 53 487Q75 513 121 545T214 599T281 622Q430 622 503 551T576 323Q576 208 545 115Q523 91 476 61T383 10T316 -12Q167 -12 94 59ZM319 75T350 85T385 99Q397
185 397 304Q397 386 390 434T359 509T291 536Q251 536 232 527Q218 520 209 459T199 307Q199 217 209 167T242 96T309 75Q319 75 350 85ZM185 720L370 826L423 740L405 694L207 658L185 720Z" />
<glyph unicode="&#xd4;" glyph-name="Ocircumflex" horiz-adv-x="597" d="M167 -12T94 59T21 286Q21 399 53 487Q75 513 121 545T214 599T281 622Q430 622 503 551T576 323Q576 208 545 115Q523 91 476 61T383 10T316 -12Q167 -12 94 59ZM319 75T350 85T385 99Q397
185 397 304Q397 386 390 434T359 509T291 536Q251 536 232 527Q218 520 209 459T199 307Q199 217 209 167T242 96T309 75Q319 75 350 85ZM136 714L253 829H347L465 714L415 659L305 714H295L185 659L136 714Z" />
<glyph unicode="&#xd5;" glyph-name="Otilde" horiz-adv-x="597" d="M167 -12T94 59T21 286Q21 399 53 487Q75 513 121 545T214 599T281 622Q430 622 503 551T576 323Q576 208 545 115Q523 91 476 61T383 10T316 -12Q167 -12 94 59ZM319 75T350 85T385 99Q397
185 397 304Q397 386 390 434T359 509T291 536Q251 536 232 527Q218 520 209 459T199 307Q199 217 209 167T242 96T309 75Q319 75 350 85ZM350 663T331 670T281 691Q269 697 258 701T241 706Q225 706 188 672L139 724Q155 747 188 780T238 813Q256 813 274 806T326
785Q358 769 367 769Q382 769 420 804L469 751Q454 729 420 696T370 663Q350 663 331 670Z" />
<glyph unicode="&#xd6;" glyph-name="Odieresis" horiz-adv-x="597" d="M167 -12T94 59T21 286Q21 399 53 487Q75 513 121 545T214 599T281 622Q430 622 503 551T576 323Q576 208 545 115Q523 91 476 61T383 10T316 -12Q167 -12 94 59ZM319 75T350 85T385 99Q397
185 397 304Q397 386 390 434T359 509T291 536Q251 536 232 527Q218 520 209 459T199 307Q199 217 209 167T242 96T309 75Q319 75 350 85ZM116 783L245 790L269 761L258 661H126L116 783ZM330 783L459 790L483 761L472 661H340L330 783Z" />
<glyph unicode="&#xd7;" glyph-name="multiply" horiz-adv-x="545" d="M335 235L401 161L395 30L273 166L149 30L144 162L210 236L144 309L152 440L273 305L394 440L401 307L335 235Z" />
<glyph unicode="&#xd8;" glyph-name="Oslash" horiz-adv-x="597" d="M576 485T576 323Q576 208 545 115Q523 91 476 61T383 10T316 -12Q221 -12 159 16L104 -72L51 -76L34 -60L103 51Q21 124 21 286Q21 399 53 487Q75 513 121 545T214 599T281 622Q379 622 441
593L482 658L534 662L549 641L496 557Q576 485 576 323ZM199 247T203 211L374 486Q351 536 291 536Q251 536 232 527Q218 520 209 459T199 307Q199 247 203 211ZM397 185T397 304Q397 354 394 393L224 121Q236 97 257 86T309 75Q319 75 350 85T385 99Q397 185 397
304Z" />
<glyph unicode="&#xd9;" glyph-name="Ugrave" horiz-adv-x="657" d="M160 -12T118 38T76 198V521L15 545V610H299V538L243 512V230Q243 186 250 164T270 135T303 128Q323 128 360 138T405 150V512L349 538V610H633V545L572 521V89L633 65V0H433L411 61Q373 40
322 14T264 -12Q160 -12 118 38ZM208 694L191 740L245 830L429 720L407 658L208 694Z" />
<glyph unicode="&#xda;" glyph-name="Uacute" horiz-adv-x="657" d="M160 -12T118 38T76 198V521L15 545V610H299V538L243 512V230Q243 186 250 164T270 135T303 128Q323 128 360 138T405 150V512L349 538V610H633V545L572 521V89L633 65V0H433L411 61Q373 40
322 14T264 -12Q160 -12 118 38ZM207 720L392 826L445 740L427 694L229 658L207 720Z" />
<glyph unicode="&#xdb;" glyph-name="Ucircumflex" horiz-adv-x="657" d="M160 -12T118 38T76 198V521L15 545V610H299V538L243 512V230Q243 186 250 164T270 135T303 128Q323 128 360 138T405 150V512L349 538V610H633V545L572 521V89L633 65V0H433L411 61Q373
40 322 14T264 -12Q160 -12 118 38ZM159 714L276 829H370L488 714L438 659L328 714H318L208 659L159 714Z" />
<glyph unicode="&#xdc;" glyph-name="Udieresis" horiz-adv-x="657" d="M160 -12T118 38T76 198V521L15 545V610H299V538L243 512V230Q243 186 250 164T270 135T303 128Q323 128 360 138T405 150V512L349 538V610H633V545L572 521V89L633 65V0H433L411 61Q373
40 322 14T264 -12Q160 -12 118 38ZM139 783L268 790L292 761L281 661H149L139 783ZM353 783L482 790L506 761L495 661H363L353 783Z" />
<glyph unicode="&#xdd;" glyph-name="Yacute" horiz-adv-x="579" d="M140 65L205 89V239L57 525L-5 545V610H282V538L228 520Q295 362 303 344H313Q330 378 388 520L333 538V610H584V545L522 525Q489 456 375 241V89L440 65V0H140V65ZM190 720L375 826L428 740L410
694L212 658L190 720Z" />
<glyph unicode="&#xde;" glyph-name="Thorn" horiz-adv-x="563" d="M472 497T511 456T551 327Q551 230 500 184T367 138H260V90L325 66V0H25V65L89 89V521L25 545V610H325V544L260 520V497H396Q472 497 511 456ZM344 230T359 234T382 255T391 310Q391 358 378
385T336 413L260 402V230H313Q344 230 359 234Z" />
<glyph unicode="&#xdf;" glyph-name="germandbls" horiz-adv-x="538" d="M384 336T398 320T445 277Q490 238 514 207T538 132Q538 117 533 92Q526 76 501 52T450 9T410 -9Q384 -9 322 -6T205 3V-17Q205 -45 175 -84T107 -154T53 -185Q21 -185 -65 -151L-63 -81Q29
-81 41 -75Q51 -70 53 -48T55 30V504Q55 524 84 562T152 631T213 661Q311 661 384 632T457 520Q457 492 446 470T415 420Q399 398 392 384T384 355Q384 336 398 320ZM366 75T372 85T378 110Q378 135 362 156T313 210Q277 245 260 269T242 322Q242 357 256 383T299
444Q316 463 324 476T333 502Q333 516 326 525T303 543Q240 572 222 572Q214 572 210 556T206 518L205 108Q335 75 358 75Q366 75 372 85Z" />
<glyph unicode="&#xe0;" glyph-name="agrave" horiz-adv-x="495" d="M117 -12T71 46T24 206Q24 249 31 293T50 363Q63 378 102 404T181 451T235 472Q245 472 326 459T440 441V87L482 72V9Q344 -12 329 -12Q324 -12 307 5T290 29V53Q206 -12 200 -12Q117 -12 71
46ZM236 95T259 107T284 120V367Q226 405 215 399Q190 385 190 219Q190 168 202 132T230 95Q236 95 259 107ZM136 600L130 648L211 721L354 569L310 517L136 600Z" />
<glyph unicode="&#xe1;" glyph-name="aacute" horiz-adv-x="495" d="M117 -12T71 46T24 206Q24 249 31 293T50 363Q63 378 102 404T181 451T235 472Q245 472 326 459T440 441V87L482 72V9Q344 -12 329 -12Q324 -12 307 5T290 29V53Q206 -12 200 -12Q117 -12 71
46ZM236 95T259 107T284 120V367Q226 405 215 399Q190 385 190 219Q190 168 202 132T230 95Q236 95 259 107ZM158 569L301 721L382 648L376 600L202 517L158 569Z" />
<glyph unicode="&#xe2;" glyph-name="acircumflex" horiz-adv-x="495" d="M117 -12T71 46T24 206Q24 249 31 293T50 363Q63 378 102 404T181 451T235 472Q245 472 326 459T440 441V87L482 72V9Q344 -12 329 -12Q324 -12 307 5T290 29V53Q206 -12 200 -12Q117 -12
71 46ZM236 95T259 107T284 120V367Q226 405 215 399Q190 385 190 219Q190 168 202 132T230 95Q236 95 259 107ZM87 573L203 713H299L416 573L358 519L256 601H247L144 519L87 573Z" />
<glyph unicode="&#xe3;" glyph-name="atilde" horiz-adv-x="495" d="M117 -12T71 46T24 206Q24 249 31 293T50 363Q63 378 102 404T181 451T235 472Q245 472 326 459T440 441V87L482 72V9Q344 -12 329 -12Q324 -12 307 5T290 29V53Q206 -12 200 -12Q117 -12 71
46ZM236 95T259 107T284 120V367Q226 405 215 399Q190 385 190 219Q190 168 202 132T230 95Q236 95 259 107ZM299 531T280 538T230 559Q218 565 207 569T190 574Q174 574 137 540L88 592Q104 615 137 648T187 681Q205 681 223 675T275 653Q307 637 316 637Q331
637 369 672L418 619Q403 597 369 564T319 531Q299 531 280 538Z" />
<glyph unicode="&#xe4;" glyph-name="adieresis" horiz-adv-x="495" d="M117 -12T71 46T24 206Q24 249 31 293T50 363Q63 378 102 404T181 451T235 472Q245 472 326 459T440 441V87L482 72V9Q344 -12 329 -12Q324 -12 307 5T290 29V53Q206 -12 200 -12Q117 -12
71 46ZM236 95T259 107T284 120V367Q226 405 215 399Q190 385 190 219Q190 168 202 132T230 95Q236 95 259 107ZM75 659L204 666L228 637L217 537H85L75 659ZM277 659L406 666L430 637L419 537H287L277 659Z" />
<glyph unicode="&#xe5;" glyph-name="aring" horiz-adv-x="495" d="M117 -12T71 46T24 206Q24 249 31 293T50 363Q63 378 102 404T181 451T235 472Q245 472 326 459T440 441V87L482 72V9Q344 -12 329 -12Q324 -12 307 5T290 29V53Q206 -12 200 -12Q117 -12 71
46ZM236 95T259 107T284 120V367Q226 405 215 399Q190 385 190 219Q190 168 202 132T230 95Q236 95 259 107ZM198 512T170 538T142 625Q142 677 171 706T253 735Q308 735 336 709T364 622Q364 570 335 541T253 512Q198 512 170 538ZM266 584T276 591Q280 602 280
624Q280 646 274 654T253 663Q240 663 230 656Q226 645 226 623Q226 601 232 593T253 584Q266 584 276 591Z" />
<glyph unicode="&#xe6;" glyph-name="ae" horiz-adv-x="696" d="M441 158T460 128T506 97L660 104V40Q612 23 553 5T479 -13Q424 -13 382 8T315 69Q284 46 244 17T200 -12Q117 -12 71 46T24 206Q24 249 31 293T50 363Q63 378 102 404T181 451T235 472Q242 472
377 451L423 444Q474 473 493 473Q555 473 594 451T655 374T676 225L441 205Q441 158 460 128ZM234 95T291 125Q281 159 281 204Q281 246 288 288T305 357Q282 372 252 387T215 400Q190 386 190 219Q190 168 202 132T230 95Q234 95 291 125ZM458 400T451 363T441
274L528 286Q528 331 519 362T495 399Q488 401 478 401T465 401Q458 400 451 363Z" />
<glyph unicode="&#xe7;" glyph-name="ccedilla" horiz-adv-x="388" d="M187 172T203 137T253 101H367V37Q281 5 243 -5L242 -39Q284 -47 308 -69T332 -116Q332 -146 318 -172Q308 -182 262 -202T171 -239L139 -176Q180 -159 198 -149T216 -125Q216 -114 200 -106T157
-95L147 -55L163 -8Q97 5 61 61T24 205Q24 249 31 291T50 360Q63 375 101 402T179 451T232 472Q260 472 298 466T367 449L364 295H278L260 376Q236 391 220 391Q212 391 208 387Q198 379 193 337T187 231Q187 172 203 137Z" />
<glyph unicode="&#xe8;" glyph-name="egrave" horiz-adv-x="438" d="M129 -13T77 45T24 204Q24 248 32 292T50 363Q63 378 102 405T181 452T236 473Q298 473 337 451T398 374T419 225L184 205Q184 157 202 127T249 97L403 104V40Q355 23 296 5T222 -13Q129 -13
77 45ZM271 286Q271 331 262 362T237 398Q230 400 221 400T208 400Q201 399 194 363T184 274L271 286ZM100 600L94 648L175 721L318 569L274 517L100 600Z" />
<glyph unicode="&#xe9;" glyph-name="eacute" horiz-adv-x="438" d="M129 -13T77 45T24 204Q24 248 32 292T50 363Q63 378 102 405T181 452T236 473Q298 473 337 451T398 374T419 225L184 205Q184 157 202 127T249 97L403 104V40Q355 23 296 5T222 -13Q129 -13
77 45ZM271 286Q271 331 262 362T237 398Q230 400 221 400T208 400Q201 399 194 363T184 274L271 286ZM122 569L265 721L346 648L340 600L166 517L122 569Z" />
<glyph unicode="&#xea;" glyph-name="ecircumflex" horiz-adv-x="438" d="M129 -13T77 45T24 204Q24 248 32 292T50 363Q63 378 102 405T181 452T236 473Q298 473 337 451T398 374T419 225L184 205Q184 157 202 127T249 97L403 104V40Q355 23 296 5T222 -13Q129
-13 77 45ZM271 286Q271 331 262 362T237 398Q230 400 221 400T208 400Q201 399 194 363T184 274L271 286ZM51 573L167 713H263L380 573L322 519L220 601H211L108 519L51 573Z" />
<glyph unicode="&#xeb;" glyph-name="edieresis" horiz-adv-x="438" d="M129 -13T77 45T24 204Q24 248 32 292T50 363Q63 378 102 405T181 452T236 473Q298 473 337 451T398 374T419 225L184 205Q184 157 202 127T249 97L403 104V40Q355 23 296 5T222 -13Q129
-13 77 45ZM271 286Q271 331 262 362T237 398Q230 400 221 400T208 400Q201 399 194 363T184 274L271 286ZM39 659L168 666L192 637L181 537H49L39 659ZM241 659L370 666L394 637L383 537H251L241 659Z" />
<glyph unicode="&#xec;" glyph-name="igrave" horiz-adv-x="269" d="M100 -12T79 6T57 30V374L15 388V451Q158 472 173 472Q178 472 195 454T213 430V87L254 73V11Q121 -12 107 -12Q100 -12 79 6ZM8 600L2 648L83 721L226 569L182 517L8 600Z" />
<glyph unicode="&#xed;" glyph-name="iacute" horiz-adv-x="269" d="M100 -12T79 6T57 30V374L15 388V451Q158 472 173 472Q178 472 195 454T213 430V87L254 73V11Q121 -12 107 -12Q100 -12 79 6ZM30 569L173 721L254 648L248 600L74 517L30 569Z" />
<glyph unicode="&#xee;" glyph-name="icircumflex" horiz-adv-x="269" d="M100 -12T79 6T57 30V374L15 388V451Q158 472 173 472Q178 472 195 454T213 430V87L254 73V11Q121 -12 107 -12Q100 -12 79 6ZM-41 573L75 713H171L288 573L230 519L128 601H119L16 519L-41 573Z" />
<glyph unicode="&#xef;" glyph-name="idieresis" horiz-adv-x="269" d="M100 -12T79 6T57 30V374L15 388V451Q158 472 173 472Q178 472 195 454T213 430V87L254 73V11Q121 -12 107 -12Q100 -12 79 6ZM-53 659L76 666L100 637L89 537H-43L-53 659ZM149 659L278
666L302 637L291 537H159L149 659Z" />
<glyph unicode="&#xf0;" glyph-name="eth" horiz-adv-x="480" d="M398 521Q453 439 453 305Q453 200 422 130T337 25T216 -9Q206 -9 167 10T89 54T42 92Q34 114 28 146T22 202Q22 252 42 295T101 364T191 390Q196 390 229 379T291 356Q288 416 276 459L212 426L168
457L167 483L243 522Q211 559 150 560L129 629Q157 631 169 631Q279 631 348 576L420 612L461 579L462 554L398 521ZM294 65T294 238V286Q254 306 237 306Q209 306 195 278T180 204Q180 161 191 113T217 65Q294 65 294 238Z" />
<glyph unicode="&#xf1;" glyph-name="ntilde" horiz-adv-x="513" d="M99 -12T78 6T57 30V373L15 388V451Q153 472 169 472Q174 472 190 455T207 431V408Q231 428 263 450T301 472Q380 472 419 439T458 324V88L499 73V11Q364 -12 351 -12Q345 -12 324 6T302 30V322Q302
365 268 365Q265 365 233 351L213 342V88L254 73V11Q120 -12 105 -12Q99 -12 78 6ZM299 531T280 538T230 559Q218 565 207 569T190 574Q174 574 137 540L88 592Q104 615 137 648T187 681Q205 681 223 675T275 653Q307 637 316 637Q331 637 369 672L418 619Q403
597 369 564T319 531Q299 531 280 538Z" />
<glyph unicode="&#xf2;" glyph-name="ograve" horiz-adv-x="499" d="M24 -12T24 207Q24 249 32 292T50 360Q63 376 103 403T184 451T239 473Q355 473 415 417T475 254Q475 207 468 165T449 97Q436 82 397 56T319 9T265 -12Q24 -12 24 207ZM270 66T298 79Q309 147
309 239Q309 307 292 352T235 397Q222 397 214 394Q203 390 197 343T190 222Q190 136 211 101T265 65Q270 66 298 79ZM138 600L132 648L213 721L356 569L312 517L138 600Z" />
<glyph unicode="&#xf3;" glyph-name="oacute" horiz-adv-x="499" d="M24 -12T24 207Q24 249 32 292T50 360Q63 376 103 403T184 451T239 473Q355 473 415 417T475 254Q475 207 468 165T449 97Q436 82 397 56T319 9T265 -12Q24 -12 24 207ZM270 66T298 79Q309 147
309 239Q309 307 292 352T235 397Q222 397 214 394Q203 390 197 343T190 222Q190 136 211 101T265 65Q270 66 298 79ZM160 569L303 721L384 648L378 600L204 517L160 569Z" />
<glyph unicode="&#xf4;" glyph-name="ocircumflex" horiz-adv-x="499" d="M24 -12T24 207Q24 249 32 292T50 360Q63 376 103 403T184 451T239 473Q355 473 415 417T475 254Q475 207 468 165T449 97Q436 82 397 56T319 9T265 -12Q24 -12 24 207ZM270 66T298 79Q309
147 309 239Q309 307 292 352T235 397Q222 397 214 394Q203 390 197 343T190 222Q190 136 211 101T265 65Q270 66 298 79ZM89 573L205 713H301L418 573L360 519L258 601H249L146 519L89 573Z" />
<glyph unicode="&#xf5;" glyph-name="otilde" horiz-adv-x="499" d="M24 -12T24 207Q24 249 32 292T50 360Q63 376 103 403T184 451T239 473Q355 473 415 417T475 254Q475 207 468 165T449 97Q436 82 397 56T319 9T265 -12Q24 -12 24 207ZM270 66T298 79Q309 147
309 239Q309 307 292 352T235 397Q222 397 214 394Q203 390 197 343T190 222Q190 136 211 101T265 65Q270 66 298 79ZM301 531T282 538T232 559Q220 565 209 569T192 574Q176 574 139 540L90 592Q106 615 139 648T189 681Q207 681 225 675T277 653Q309 637 318
637Q333 637 371 672L420 619Q405 597 371 564T321 531Q301 531 282 538Z" />
<glyph unicode="&#xf6;" glyph-name="odieresis" horiz-adv-x="499" d="M24 -12T24 207Q24 249 32 292T50 360Q63 376 103 403T184 451T239 473Q355 473 415 417T475 254Q475 207 468 165T449 97Q436 82 397 56T319 9T265 -12Q24 -12 24 207ZM270 66T298 79Q309
147 309 239Q309 307 292 352T235 397Q222 397 214 394Q203 390 197 343T190 222Q190 136 211 101T265 65Q270 66 298 79ZM76 659L205 666L229 637L218 537H86L76 659ZM278 659L407 666L431 637L420 537H288L278 659Z" />
<glyph unicode="&#xf7;" glyph-name="divide" horiz-adv-x="598" d="M257 365T240 383T223 411L220 494Q245 501 283 507T339 513Q346 513 363 494T380 467L372 380Q353 376 318 372T264 365Q257 365 240 383ZM92 304H506V204H92V304ZM257 -1T240 17T223 45L220
128Q245 135 283 141T339 147Q346 147 363 128T380 101L372 14Q353 10 318 6T264 -1Q257 -1 240 17Z" />
<glyph unicode="&#xf8;" glyph-name="oslash" horiz-adv-x="499" d="M475 385T475 254Q475 207 468 165T449 97Q436 82 397 56T319 9T265 -12Q221 -12 181 -4L144 -83L91 -88L69 -66L110 23Q24 77 24 207Q24 249 32 292T50 360Q63 376 103 403T184 451T239 473Q275
473 315 466L349 538L405 544L424 521L386 439Q475 385 475 254ZM190 204T191 196L275 379Q259 397 235 397Q222 397 214 394Q203 390 197 343T190 222Q190 204 191 196ZM309 147T309 239Q309 260 308 271L222 86Q239 65 265 65Q270 66 298 79Q309 147 309 239Z"
/>
<glyph unicode="&#xf9;" glyph-name="ugrave" horiz-adv-x="513" d="M134 -12T95 21T56 136V372L15 387V449Q150 472 162 472Q169 472 190 455T212 430V138Q212 95 246 95Q253 95 300 118V372L259 387V449Q393 472 407 472Q414 472 435 455T456 430V87L498 72V9Q359
-12 344 -12Q339 -12 323 5T306 29V52Q281 32 250 10T212 -12Q134 -12 95 21ZM124 600L118 648L199 721L342 569L298 517L124 600Z" />
<glyph unicode="&#xfa;" glyph-name="uacute" horiz-adv-x="513" d="M134 -12T95 21T56 136V372L15 387V449Q150 472 162 472Q169 472 190 455T212 430V138Q212 95 246 95Q253 95 300 118V372L259 387V449Q393 472 407 472Q414 472 435 455T456 430V87L498 72V9Q359
-12 344 -12Q339 -12 323 5T306 29V52Q281 32 250 10T212 -12Q134 -12 95 21ZM146 569L289 721L370 648L364 600L190 517L146 569Z" />
<glyph unicode="&#xfb;" glyph-name="ucircumflex" horiz-adv-x="513" d="M134 -12T95 21T56 136V372L15 387V449Q150 472 162 472Q169 472 190 455T212 430V138Q212 95 246 95Q253 95 300 118V372L259 387V449Q393 472 407 472Q414 472 435 455T456 430V87L498
72V9Q359 -12 344 -12Q339 -12 323 5T306 29V52Q281 32 250 10T212 -12Q134 -12 95 21ZM76 573L192 713H288L405 573L347 519L245 601H236L133 519L76 573Z" />
<glyph unicode="&#xfc;" glyph-name="udieresis" horiz-adv-x="513" d="M134 -12T95 21T56 136V372L15 387V449Q150 472 162 472Q169 472 190 455T212 430V138Q212 95 246 95Q253 95 300 118V372L259 387V449Q393 472 407 472Q414 472 435 455T456 430V87L498
72V9Q359 -12 344 -12Q339 -12 323 5T306 29V52Q281 32 250 10T212 -12Q134 -12 95 21ZM63 659L192 666L216 637L205 537H73L63 659ZM265 659L394 666L418 637L407 537H275L265 659Z" />
<glyph unicode="&#xfd;" glyph-name="yacute" horiz-adv-x="457" d="M198 -185T182 -157T168 -124L212 2L164 -4Q161 -4 141 8L45 374L1 387V450Q136 472 146 472Q151 472 171 457T194 435L236 213L244 116H254L317 383L252 391V459L424 472Q430 472 444 452T457
424L327 16L305 -91L357 -109L355 -167Q218 -185 203 -185Q198 -185 182 -157ZM153 569L296 721L377 648L371 600L197 517L153 569Z" />
<glyph unicode="&#xfe;" glyph-name="thorn" horiz-adv-x="486" d="M73 -185T56 -168T39 -144L46 34V562L4 577V640Q148 661 163 661Q168 661 185 644T202 620V411Q280 472 286 472Q368 472 415 412T462 248Q462 206 455 164T436 97Q423 82 384 56T305 9T251 -12Q239
-12 201 -6V-85L244 -100V-163Q94 -185 78 -185Q73 -185 56 -168ZM283 69T289 112T296 234Q296 288 284 326T256 365Q252 365 202 340L201 92Q262 54 272 61Q283 69 289 112Z" />
<glyph unicode="&#xff;" glyph-name="ydieresis" horiz-adv-x="457" d="M198 -185T182 -157T168 -124L212 2L164 -4Q161 -4 141 8L45 374L1 387V450Q136 472 146 472Q151 472 171 457T194 435L236 213L244 116H254L317 383L252 391V459L424 472Q430 472 444 452T457
424L327 16L305 -91L357 -109L355 -167Q218 -185 203 -185Q198 -185 182 -157ZM62 659L191 666L215 637L204 537H72L62 659ZM264 659L393 666L417 637L406 537H274L264 659Z" />
<glyph unicode="&#x2013;" glyph-name="endash" horiz-adv-x="438" d="M32 297H406V193H32V297Z" />
<glyph unicode="&#x2014;" glyph-name="emdash" horiz-adv-x="813" d="M32 297H781V193H32V297Z" />
<glyph unicode="&#x2018;" glyph-name="quoteleft" horiz-adv-x="246" d="M76 406T59 424T42 451V503Q42 576 137 695L201 663Q176 587 168 547Q177 540 188 530T200 513L194 421Q169 415 135 411T82 406Q76 406 59 424Z" />
<glyph unicode="&#x2019;" glyph-name="quoteright" horiz-adv-x="246" d="M44 441Q68 510 77 557Q74 559 60 571T46 591L52 682Q79 688 112 693T164 698Q170 698 187 680T204 653V601Q204 529 108 409L44 441Z" />
<glyph unicode="&#x201a;" glyph-name="quotesinglbase" horiz-adv-x="235" d="M46 -101Q65 -43 75 -1Q64 7 55 15T46 29L52 126Q115 135 157 135Q164 135 178 117T193 90V44Q193 21 165 -35T105 -133L46 -101Z" />
<glyph unicode="&#x201c;" glyph-name="quotedblleft" horiz-adv-x="447" d="M76 406T59 424T42 451V503Q42 576 137 695L201 663Q176 587 168 547Q177 540 188 530T200 513L194 421Q169 415 135 411T82 406Q76 406 59 424ZM277 406T260 424T243 451V503Q243 575
339 695L403 663Q379 594 370 547Q373 545 387 533T401 513L395 421Q370 415 337 411T283 406Q277 406 260 424Z" />
<glyph unicode="&#x201d;" glyph-name="quotedblright" horiz-adv-x="447" d="M44 441Q68 510 77 557Q74 559 60 571T46 591L52 682Q79 688 112 693T164 698Q170 698 187 680T204 653V601Q204 529 108 409L44 441ZM246 441Q271 517 279 557Q270 564 259 574T247
591L253 682Q279 688 312 693T365 698Q371 698 388 680T405 653V601Q405 528 310 409L246 441Z" />
<glyph unicode="&#x201e;" glyph-name="quotedblbase" horiz-adv-x="435" d="M46 -101Q65 -43 75 -1Q64 7 55 15T46 29L52 126Q115 135 157 135Q164 135 178 117T193 90V44Q193 21 165 -35T105 -133L46 -101ZM245 -101Q264 -43 274 -1Q263 7 254 15T245 29L251
126Q314 135 356 135Q363 135 377 117T392 90V44Q392 21 364 -35T304 -133L245 -101Z" />
<glyph unicode="&#x2022;" glyph-name="bullet" horiz-adv-x="475" d="M173 122T129 162T85 274Q85 345 129 386T238 427Q279 427 313 409T369 357T390 274Q390 227 369 193T314 140T238 122Q173 122 129 162Z" />
<glyph unicode="&#x2039;" glyph-name="guilsinglleft" horiz-adv-x="289" d="M27 188V275L184 430L242 389L172 239V223L241 72L183 30L27 188Z" />
<glyph unicode="&#x203a;" glyph-name="guilsinglright" horiz-adv-x="289" d="M48 72L117 223V239L47 389L105 430L262 275V188L106 30L48 72Z" />
</font>
</defs>
</svg>
