<?xml version="1.0" standalone="no"?>
<!DOCTYPE svg PUBLIC "-//W3C//DTD SVG 1.1//EN" "http://www.w3.org/Graphics/SVG/1.1/DTD/svg11.dtd">
<svg xmlns="http://www.w3.org/2000/svg">
<defs >
<font id="Grenze" horiz-adv-x="532" ><font-face
    font-family="Grenze Black"
    units-per-em="1000"
    panose-1="2 14 10 4 6 4 3 5 4 4"
    ascent="1100"
    descent="-380"
    alphabetic="0" />
<glyph unicode=" " glyph-name="space" horiz-adv-x="168" />
<glyph unicode="!" glyph-name="exclam" horiz-adv-x="324" d="M122 191T111 198T100 210L72 634Q202 658 220 658Q225 658 238 646T252 628L222 204Q141 191 127 191Q122 191 111 198ZM108 -9T94 5T80 26L90 128H236L245 1Q168 -9 115 -9Q108 -9 94 5Z" />
<glyph unicode="&quot;" glyph-name="quotedbl" horiz-adv-x="401" d="M25 683Q97 697 147 697Q155 697 169 683T182 665Q171 571 154 482L45 481L25 683ZM219 683Q291 697 341 697Q349 697 363 683T376 665Q364 568 348 482L239 481L219 683Z" />
<glyph unicode="#" glyph-name="numbersign" horiz-adv-x="547" d="M417 281L406 200H491L479 96H391L374 -31H271L288 96H215L198 -31H94L111 96H24L36 200H125L136 281H53L64 385H150L165 500H270L254 385H327L342 500H447L431 385H518L507 281H417ZM313 281H240L229
200H302L313 281Z" />
<glyph unicode="$" glyph-name="dollar" horiz-adv-x="541" d="M332 343T343 336Q416 296 456 262T496 179Q496 159 491 126Q473 94 425 57T332 -1V-122H224L225 -10Q174 -7 127 -1L55 5L62 203H152L173 103Q212 96 250 91T299 86Q301 86 307 100T314 125Q314
146 291 163T210 212Q139 252 99 290T58 386Q58 410 62 434Q77 462 127 501T223 562V679H329V570Q419 560 478 551L470 367H381L368 458Q359 460 313 468T248 477Q243 477 239 464T234 437Q234 416 253 397T310 355Q332 343 343 336Z" />
<glyph unicode="%" glyph-name="percent" horiz-adv-x="864" d="M148 288T112 327T76 449Q76 525 116 569T233 613Q313 613 348 575T384 458Q384 381 344 335T229 288Q148 288 112 327ZM517 611H631L350 -9H236L517 611ZM250 365T272 380Q279 422 279 463Q279
499 268 517T232 535Q211 535 185 521Q180 491 180 451Q180 409 191 387T230 365Q250 365 272 380ZM553 -15T517 24T481 146Q481 222 521 266T638 310Q718 310 753 272T789 155Q789 78 749 32T634 -15Q553 -15 517 24ZM655 62T677 77Q684 119 684 160Q684 196 673
214T637 232Q616 232 590 218Q585 188 585 148Q585 106 596 84T635 62Q655 62 677 77Z" />
<glyph unicode="&amp;" glyph-name="ampersand" horiz-adv-x="630" d="M625 71V0H415Q407 4 371 43L358 29Q328 16 285 4T231 -9Q129 -9 75 34T20 163Q20 267 137 337Q111 376 97 411T82 483Q82 519 93 536Q123 561 190 593T278 625Q346 625 392 603T439 532Q439
507 421 431H327L323 518Q322 538 307 547T269 557Q255 554 255 525Q255 499 266 469T293 414Q339 344 414 252L438 293L395 305L396 372H624L623 297L556 285L477 179Q536 114 574 84L625 71ZM299 76T319 104L235 209L205 246Q195 220 195 184Q195 136 213 101T259
65Q274 65 287 71Q299 76 319 104Z" />
<glyph unicode="&apos;" glyph-name="quotesingle" horiz-adv-x="207" d="M25 683Q97 697 147 697Q155 697 169 683T182 665Q171 571 154 482L45 481L25 683Z" />
<glyph unicode="(" glyph-name="parenleft" horiz-adv-x="299" d="M117 -42T72 66T26 291Q26 407 71 512T204 690L279 644Q240 573 220 483T200 294Q200 194 220 98T279 -76L204 -122Q117 -42 72 66Z" />
<glyph unicode=")" glyph-name="parenright" horiz-adv-x="299" d="M20 -76Q59 -5 79 85T99 274Q99 374 79 470T20 644L95 690Q182 610 227 502T273 277Q273 161 228 56T95 -122L20 -76Z" />
<glyph unicode="*" glyph-name="asterisk" horiz-adv-x="331" d="M115 395L134 471L81 419L51 423L14 509L98 533L16 560L47 644L75 648L134 595L112 688L204 695L223 674L203 595L258 645L286 640L328 557L238 533L322 505L288 422L258 420L203 471L226 381L132
372L115 395Z" />
<glyph unicode="+" glyph-name="plus" horiz-adv-x="592" d="M502 199H356V28H238V199H90V309H238V479H356V309H502V199Z" />
<glyph unicode="," glyph-name="comma" horiz-adv-x="253" d="M43 -124Q66 -53 74 -5Q71 -3 55 10T40 33L46 126Q73 132 110 138T169 144Q176 144 194 124T213 94V42Q213 -39 114 -160L43 -124Z" />
<glyph unicode="-" glyph-name="hyphen" horiz-adv-x="308" d="M30 302H278V186H30V302Z" />
<glyph unicode="." glyph-name="period" horiz-adv-x="247" d="M75 -16T57 3T39 33L36 117Q63 124 104 130T168 137Q175 137 193 116T211 87L202 -1Q89 -16 82 -16Q75 -16 57 3Z" />
<glyph unicode="/" glyph-name="slash" horiz-adv-x="406" d="M238 687H371L168 -118H35L238 687Z" />
<glyph unicode="0" glyph-name="zero" horiz-adv-x="553" d="M152 -13T91 53T30 243Q30 307 53 363T132 457T275 494Q400 494 461 430T523 243Q523 180 498 122T418 25T277 -13Q152 -13 91 53ZM290 71T326 88Q333 112 335 147T338 243Q338 330 327 368T293 406Q256
406 225 389Q218 366 217 334T215 243Q215 150 224 111T256 71Q290 71 326 88Z" />
<glyph unicode="1" glyph-name="one" horiz-adv-x="392" d="M44 72L129 97V358L35 348V433L229 494L302 467V97L377 72V0H44V72Z" />
<glyph unicode="2" glyph-name="two" horiz-adv-x="472" d="M15 65L164 246Q195 284 209 310T224 360Q224 375 218 389T204 404Q197 404 142 393L132 310H48L41 473Q86 480 165 487T268 494Q330 494 376 465T422 374Q422 337 411 308T370 241L273 116V102H345L359
173H443L447 0H26L15 65Z" />
<glyph unicode="3" glyph-name="three" horiz-adv-x="450" d="M55 -25Q129 -9 183 30T238 122Q238 145 227 161T201 177H104V249Q169 265 195 290T222 361Q222 376 216 390T202 404Q197 404 165 398Q158 397 150 396T136 393L126 324H42L35 473Q77 480 139 487T223
494Q303 494 351 464T399 369Q399 339 383 314T342 272T294 251V242Q360 239 392 210T425 128Q425 71 372 22T233 -61T55 -104V-25Z" />
<glyph unicode="4" glyph-name="four" horiz-adv-x="519" d="M275 34H16L10 105Q100 345 152 497L309 437V398Q293 367 243 283T159 146V132H275V218L402 264L437 248V132H494V34H437V-103H275V34Z" />
<glyph unicode="5" glyph-name="five" horiz-adv-x="435" d="M37 -25Q127 -5 177 28T228 127Q228 161 210 176T163 192Q155 192 65 163L30 204L60 482H272L281 537H372V380H158L147 266Q167 274 199 286T237 298Q319 298 362 261T405 153Q405 82 356 27T222 -62T37
-104V-25Z" />
<glyph unicode="6" glyph-name="six" horiz-adv-x="498" d="M198 -13T144 16T60 99T30 226Q30 331 83 408T223 530T411 584V504Q329 483 285 444T218 337L223 335Q237 343 244 346Q285 371 293 371Q384 371 426 315T468 181Q468 145 457 105Q417 56 360 22T267
-13Q198 -13 144 16ZM276 74T282 105T288 174Q288 224 279 246T256 269Q251 268 239 265T212 255Q209 222 209 187Q209 135 222 105T268 74Q276 74 282 105Z" />
<glyph unicode="7" glyph-name="seven" horiz-adv-x="475" d="M198 -110T148 -90T69 -54L304 368L302 380H129L117 303H33L25 482H443L455 410L251 -89Q242 -96 229 -103T208 -110Q198 -110 148 -90Z" />
<glyph unicode="8" glyph-name="eight" horiz-adv-x="498" d="M140 -13T85 28T30 137Q30 183 51 213T122 273V281Q43 339 43 414Q43 449 49 466Q59 481 96 510T175 561T245 584Q308 584 355 566T428 515T454 443Q454 397 435 370T375 312V305Q419 278 443 244T468
161Q468 132 459 105Q448 89 411 60T333 9T264 -13Q140 -13 85 28ZM303 389T303 418Q303 497 235 497Q234 497 229 489T220 469T216 443Q216 415 236 396T296 354Q303 389 303 418ZM282 74T288 91T295 128Q295 153 271 173T192 227Q181 200 181 176Q181 132 200
103T277 74Q282 74 288 91Z" />
<glyph unicode="9" glyph-name="nine" horiz-adv-x="498" d="M87 -23Q169 -2 213 37T280 144L275 146Q261 138 254 135Q213 110 205 110Q114 110 72 166T30 300Q30 336 41 376Q81 425 138 459T231 494Q300 494 354 465T438 382T468 255Q468 150 415 73T275 -49T87
-103V-23ZM247 213T259 216T286 226Q289 259 289 294Q289 346 276 376T230 407Q222 407 216 376T210 307Q210 257 219 235T242 212Q247 213 259 216Z" />
<glyph unicode=":" glyph-name="colon" horiz-adv-x="247" d="M75 -16T57 3T39 33L36 117Q63 124 104 130T168 137Q175 137 193 116T211 87L202 -1Q89 -16 82 -16Q75 -16 57 3ZM75 324T57 343T39 373L36 457Q63 464 104 470T168 477Q175 477 193 456T211 427L202
339Q89 324 82 324Q75 324 57 343Z" />
<glyph unicode=";" glyph-name="semicolon" horiz-adv-x="247" d="M75 324T57 343T39 373L36 457Q63 464 104 470T168 477Q175 477 193 456T211 427L202 339Q89 324 82 324Q75 324 57 343ZM296 -124Q319 -53 327 -5Q324 -3 308 10T293 33L299 126Q326 132 363
138T422 144Q429 144 447 124T466 94V42Q466 -39 367 -160L296 -124Z" />
<glyph unicode="&lt;" glyph-name="less" horiz-adv-x="570" d="M75 157V313L495 494V360L190 235L495 110V-24L75 157Z" />
<glyph unicode="=" glyph-name="equal" horiz-adv-x="572" d="M90 399H482V291H90V399ZM90 217H482V109H90V217Z" />
<glyph unicode="&gt;" glyph-name="greater" horiz-adv-x="570" d="M75 110L380 235L75 360V494L495 313V157L75 -24V110Z" />
<glyph unicode="?" glyph-name="question" horiz-adv-x="528" d="M480 661T480 512Q480 476 467 448T433 398T374 342L348 318Q315 287 301 260T285 187Q204 174 190 174Q185 174 174 181T163 193L158 282Q156 324 176 355T236 422Q280 461 296 486T313 533Q313
547 308 559T290 572Q271 572 193 548L170 436H82L76 627Q214 661 300 661Q480 661 480 512ZM295 127L304 -2Q242 -9 181 -9Q173 -9 157 7T141 30L154 127H295Z" />
<glyph unicode="@" glyph-name="at" horiz-adv-x="975" d="M313 -238T219 -180T76 -16T26 227Q26 367 84 477T250 649T502 712Q711 712 830 617T949 339Q949 246 914 157T823 15Q765 5 680 -4T566 -13Q561 -13 544 5T526 30V51Q503 33 472 10T438 -13Q351 -13
304 46T257 205Q257 248 265 292T284 364Q298 379 339 406T422 455T479 476Q494 476 692 443V95L759 84Q796 187 796 293Q796 612 505 612Q442 612 381 595T274 550Q234 507 209 413T183 220Q183 42 260 -54T501 -151Q531 -151 566 -148L578 -221Q504 -238 441
-238Q313 -238 219 -180ZM481 103T519 124V363Q473 402 464 402Q457 402 450 349T442 220Q442 173 450 138T475 103Q481 103 519 124Z" />
<glyph unicode="A" glyph-name="A" horiz-adv-x="664" d="M-6 72L56 92L225 606Q253 610 318 616T409 625Q412 625 433 612L604 92L666 72V0H336V80L404 97L384 171H227L212 97L281 80V0H-6V72ZM359 266L310 471H300L249 266H359Z" />
<glyph unicode="B" glyph-name="B" horiz-adv-x="594" d="M20 72L80 97V515L20 540V612H399Q477 612 515 577T553 457Q553 416 538 389T503 349T459 323V317Q513 307 546 269T579 174Q579 80 530 40T397 0H20V72ZM302 352Q335 352 350 368T365 432Q365 480 356
501T322 522L271 515V352H302ZM362 89T374 110T387 186Q387 218 380 233T359 253T322 257H271V98L331 89Q362 89 374 110Z" />
<glyph unicode="C" glyph-name="C" horiz-adv-x="496" d="M140 -13T78 58T15 287Q15 396 48 485Q72 512 121 545T220 601T292 625Q305 625 438 606Q463 602 471 601L459 384H370L355 510Q335 517 309 523T265 529Q249 529 242 524Q231 517 223 456T214 308Q214
193 240 147T323 101H360L379 224H466L472 14Q436 6 363 -3T276 -13Q140 -13 78 58Z" />
<glyph unicode="D" glyph-name="D" horiz-adv-x="614" d="M20 72L80 97V515L20 540V612H388Q443 612 490 584T568 491T599 322Q599 158 544 79T388 0H20V72ZM369 91T386 149T404 312Q404 402 386 462T337 522L271 515V98L337 91Q369 91 386 149Z" />
<glyph unicode="E" glyph-name="E" horiz-adv-x="558" d="M20 72L80 97V515L20 540V612H528L515 417H426L413 524L271 510V365L404 360V266L271 259V104L422 88L440 199H529L533 0H20V72Z" />
<glyph unicode="F" glyph-name="F" horiz-adv-x="520" d="M20 72L80 97V515L20 540V612H508L495 407H406L393 524L271 510V346L424 341V247L271 240V105L371 74V0H20V72Z" />
<glyph unicode="G" glyph-name="G" horiz-adv-x="599" d="M165 -13T90 59T15 287Q15 396 48 485Q72 512 121 545T220 601T292 625Q312 625 400 617T528 601L516 396H423L411 509Q303 529 265 529Q249 529 242 524Q231 517 223 456T214 308Q214 226 223 181T252
117T311 97L383 104V222L290 239V316H599V243L539 230V51Q517 39 426 13T318 -13Q165 -13 90 59Z" />
<glyph unicode="H" glyph-name="H" horiz-adv-x="693" d="M20 72L80 97V515L20 540V612H325V532L267 505V360H426V505L368 532V612H673V540L613 515V97L673 72V0H368V84L426 107V265H267V107L325 84V0H20V72Z" />
<glyph unicode="I" glyph-name="I" horiz-adv-x="361" d="M20 72L85 97V515L20 540V612H341V540L276 515V97L341 72V0H20V72Z" />
<glyph unicode="J" glyph-name="J" horiz-adv-x="344" d="M75 -153T8 -140Q-9 -138 -26 -135T-60 -129V-42Q31 -42 46 -39Q78 -34 78 70V515L13 540V612H334V540L269 515V58Q269 20 235 -29T158 -116T95 -153Q75 -153 8 -140Z" />
<glyph unicode="K" glyph-name="K" horiz-adv-x="668" d="M20 72L80 97V515L20 540V612H323V532L267 505V107L325 84V0H20V72ZM380 103T329 194L284 272V333L423 512L366 532V612H654V540L597 520L448 334Q508 244 610 97L666 72V0H440Q380 103 329 194Z" />
<glyph unicode="L" glyph-name="L" horiz-adv-x="523" d="M20 72L80 97V515L20 540V612H341V540L271 515V104L398 88L420 219H509L513 0H20V72Z" />
<glyph unicode="M" glyph-name="M" horiz-adv-x="855" d="M10 72L70 97L90 515L30 540V612H317L422 253H435L541 612H829V540L769 515L789 97L849 72V0H529V80L599 105L592 360H582Q567 287 549 235L476 35Q369 19 360 19Q357 19 336 32L261 240Q243 290 228 360H218L208
105L278 80V0H10V72Z" />
<glyph unicode="N" glyph-name="N" horiz-adv-x="669" d="M418 -13T397 0L289 193Q242 277 219 360H209L218 140V105L288 80V0H20V72L80 97V515L20 540V612H287L412 376Q440 323 460 250H470L461 476V507L392 532V612H659V540L599 515V6Q430 -13 421 -13Q418 -13 397 0Z" />
<glyph unicode="O" glyph-name="O" horiz-adv-x="610" d="M165 -13T90 59T15 287Q15 396 48 485Q72 512 121 545T220 601T292 625Q445 625 520 553T595 324Q595 210 562 117Q539 93 489 62T389 9T318 -13Q165 -13 90 59ZM320 81T349 89T384 100Q395 179 395 305Q395
387 389 434T361 506T298 532Q258 532 242 524Q231 519 223 457T214 308Q214 220 223 172T252 102T311 81Q320 81 349 89Z" />
<glyph unicode="P" glyph-name="P" horiz-adv-x="581" d="M20 72L80 97V515L20 540V612H410Q488 612 529 566T571 418Q571 310 518 260T381 209H271V105L371 74V0H20V72ZM315 310Q345 310 361 315T386 341T395 405Q395 519 338 519L271 510V310H315Z" />
<glyph unicode="Q" glyph-name="Q" horiz-adv-x="610" d="M541 94T496 66T402 15L593 -40L543 -167H472L221 -4Q117 16 66 87T15 287Q15 396 48 485Q72 512 121 545T220 601T292 625Q445 625 520 553T595 324Q595 210 562 117Q541 94 496 66ZM231 519T223 457T214
308Q214 220 223 172T252 102T311 81Q320 81 349 89T384 100Q395 179 395 305Q395 387 389 434T361 506T298 532Q258 532 242 524Q231 519 223 457Z" />
<glyph unicode="R" glyph-name="R" horiz-adv-x="626" d="M20 72L80 97V515L20 540V612H403Q481 612 522 572T564 439Q564 378 541 335T476 265V259Q498 224 532 165L572 97L626 71V0H404L377 71Q323 213 314 236H271V105L331 74V0H20V72ZM303 332Q330 332 344
336T365 359T373 416Q373 466 361 492T326 519L271 510V332H303Z" />
<glyph unicode="S" glyph-name="S" horiz-adv-x="463" d="M201 -13T83 -1L16 5L23 203H113L134 103Q173 96 211 91T260 86Q262 86 268 100T275 125Q274 157 250 179T176 233Q126 263 95 287T42 348T19 436Q19 460 23 484Q36 508 77 542T161 600T226 625Q245 625
313 618T439 601L431 417H342L329 508Q320 510 274 518T209 527Q204 527 200 514T195 487Q195 454 217 429T279 378L310 359Q357 332 386 310T436 255T457 179Q457 159 452 126Q436 98 397 65T315 10T250 -13Q201 -13 83 -1Z" />
<glyph unicode="T" glyph-name="T" horiz-adv-x="589" d="M114 72L199 97V517L125 508L112 394H23L10 612H579L566 394H477L464 508L390 517V97L475 72V0H114V72Z" />
<glyph unicode="U" glyph-name="U" horiz-adv-x="673" d="M193 -13T150 10T88 81T70 205V515L10 540V612H310V532L257 505V240Q257 198 264 177T283 149T316 142Q337 142 368 150T406 161V505L353 532V612H653V540L593 515V97L653 72V0H436L413 61Q376 40 326
14T269 -13Q193 -13 150 10Z" />
<glyph unicode="V" glyph-name="V" horiz-adv-x="652" d="M246 -13T225 0L68 520L6 540V612H328V532L268 515L307 351Q320 297 348 171H358Q371 222 396 338T432 515L371 532V612H650V540L588 520L498 221L433 6Q258 -13 249 -13Q246 -13 225 0Z" />
<glyph unicode="W" glyph-name="W" horiz-adv-x="977" d="M226 -13T205 0L68 520L6 540V612H318V532L268 515L297 351L328 171H338Q394 341 428 463L413 520L361 540V612H663V532L602 515L636 351L673 171H683Q696 222 721 338T757 515L706 532V612H975V540L913
520L823 221L758 6Q583 -13 574 -13Q571 -13 550 0L490 228H479L413 6Q238 -13 229 -13Q226 -13 205 0Z" />
<glyph unicode="X" glyph-name="X" horiz-adv-x="683" d="M0 72L61 97L221 321L80 515L30 540V612H340V532L295 523L362 401H372L428 523L383 532V612H653V540L593 515L457 327L632 97L683 72V0H340V84L408 99L317 243H307L232 99L297 84V0H0V72Z" />
<glyph unicode="Y" glyph-name="Y" horiz-adv-x="595" d="M137 72L202 97V243L57 520L-5 540V612H297V532L247 515L314 351H324Q334 371 355 423T392 515L341 532V612H600V540L538 520Q526 493 478 402T393 245V97L458 72V0H137V72Z" />
<glyph unicode="Z" glyph-name="Z" horiz-adv-x="516" d="M10 72L259 510L135 524L122 417H32L19 612H483V540L236 104L388 88L408 209H495L506 0H10V72Z" />
<glyph unicode="[" glyph-name="bracketleft" horiz-adv-x="299" d="M50 -111V679L269 691L276 616L202 599V-21L276 -39L270 -123L50 -111Z" />
<glyph unicode="\" glyph-name="backslash" horiz-adv-x="348" d="M6 687H139L342 -118H209L6 687Z" />
<glyph unicode="]" glyph-name="bracketright" horiz-adv-x="299" d="M23 -48L97 -31V589L23 607L29 691L249 679V-111L30 -123L23 -48Z" />
<glyph unicode="^" glyph-name="asciicircum" horiz-adv-x="543" d="M40 283L204 603H339L503 283L396 231L272 479L147 231L40 283Z" />
<glyph unicode="_" glyph-name="underscore" horiz-adv-x="408" d="M15 -73H393V-193H15V-73Z" />
<glyph unicode="`" glyph-name="grave" horiz-adv-x="234" d="M7 599L0 653L89 732L234 574L185 516L7 599Z" />
<glyph unicode="a" glyph-name="a" horiz-adv-x="507" d="M114 -13T67 46T20 205Q20 248 28 292T47 364Q61 379 102 406T185 455T242 476Q257 476 455 443V94L499 79V10Q346 -13 329 -13Q324 -13 307 5T289 30V51Q266 33 235 10T201 -13Q114 -13 67 46ZM244 103T282
124V363Q234 405 226 399Q205 384 205 220Q205 173 213 138T238 103Q244 103 282 124Z" />
<glyph unicode="b" glyph-name="b" horiz-adv-x="495" d="M244 -13T168 2T40 28V557L-4 572V641Q36 647 98 655T173 664Q178 664 195 646T213 621L204 418L211 416Q289 476 294 476Q381 476 428 415T475 249Q475 209 467 167T448 99Q434 84 393 57T310 8T253 -13Q244
-13 168 2ZM279 73T284 117T290 234Q290 285 282 322T257 360Q251 360 213 339V100Q261 56 270 65Q279 73 284 117Z" />
<glyph unicode="c" glyph-name="c" horiz-adv-x="399" d="M117 -13T69 46T20 205Q20 248 28 290T47 360Q60 375 101 403T182 454T238 476Q268 476 308 470T380 452L377 291H284L266 375Q242 390 231 390Q224 390 220 386Q211 379 206 338T201 235Q201 111 266
111H380V41Q372 38 309 13T207 -13Q117 -13 69 46Z" />
<glyph unicode="d" glyph-name="d" horiz-adv-x="507" d="M114 -13T67 46T20 205Q20 248 28 293T47 365Q61 380 102 407T185 456T242 477L282 472V558L238 573V642Q404 665 422 665Q427 665 444 647T462 622L455 440V94L499 79V10Q346 -13 329 -13Q324 -13 307
5T289 30V51Q266 33 235 10T201 -13Q114 -13 67 46ZM244 103T282 124V363Q270 375 251 389T226 399Q205 384 205 220Q205 173 213 138T238 103Q244 103 282 124Z" />
<glyph unicode="e" glyph-name="e" horiz-adv-x="447" d="M127 -14T74 45T20 204Q20 247 28 292T47 364Q61 379 102 406T185 455T242 476Q338 476 385 419T432 221L197 201Q197 163 212 135T255 106L415 114V44Q380 31 312 9T227 -14Q127 -14 74 45ZM270 288Q270
329 263 359T246 397Q242 399 233 400T219 402Q213 402 206 366T196 277L270 288Z" />
<glyph unicode="f" glyph-name="f" horiz-adv-x="329" d="M100 -13T77 6T53 31V376H-5V448L53 467V506Q53 526 85 564T158 634T220 665Q243 665 286 663T369 658Q374 653 381 634T389 609Q389 604 372 562T352 520Q348 522 299 545T238 569Q234 569 230 559T226
528V462H335V375H226V100L290 76V16Q122 -13 106 -13Q100 -13 77 6Z" />
<glyph unicode="g" glyph-name="g" horiz-adv-x="469" d="M180 -186T111 -176T10 -156L19 -65L141 44Q82 60 51 107T19 225Q19 262 27 301T46 365Q66 389 133 433T221 477Q236 477 434 436V-22Q434 -54 394 -92T301 -158T215 -186Q180 -186 111 -176ZM238 131T266
154V364Q228 405 221 401Q210 395 205 356T199 250Q199 198 207 165T232 131Q238 131 266 154ZM256 -112T263 -79T271 -6V39L265 42L239 14Q227 2 154 -77V-85Q163 -91 198 -101T245 -112Q256 -112 263 -79Z" />
<glyph unicode="h" glyph-name="h" horiz-adv-x="509" d="M85 -13T63 5T40 31V558L-4 573V642Q156 665 173 665Q178 665 195 647T213 622L204 419L212 417Q238 438 265 457T298 476Q378 476 418 444T458 333V95L501 80V12Q352 -13 338 -13Q331 -13 308 5T285 31V331Q285
347 276 353T257 360Q251 360 213 341V95L256 80V12Q108 -13 92 -13Q85 -13 63 5Z" />
<glyph unicode="i" glyph-name="i" horiz-adv-x="280" d="M99 -13T77 5T54 31V369L10 384V453Q170 476 187 476Q192 476 209 458T227 433V95L270 80V12Q122 -13 106 -13Q99 -13 77 5ZM43 664L186 671L212 641L200 537H54L43 664Z" />
<glyph unicode="j" glyph-name="j" horiz-adv-x="265" d="M55 657L204 664L230 634L219 530H67L55 657ZM70 -186T25 -180T-65 -166V-84Q-48 -84 -9 -80T35 -73Q47 -66 51 -41T56 12V369L12 384V453Q172 476 189 476Q194 476 211 458T229 433V-23Q229 -53 203 -91T142
-158T88 -186Q70 -186 25 -180Z" />
<glyph unicode="k" glyph-name="k" horiz-adv-x="511" d="M85 -13T63 5T40 31V558L-4 573V642Q156 665 173 665Q178 665 195 647T213 622V95L252 80V12Q108 -13 92 -13Q85 -13 63 5ZM354 -13T335 -2T311 17L230 202V263L332 378L261 388V462L472 473Q478 473 488
444T499 405L368 258L464 95L507 80V12Q370 -13 360 -13Q354 -13 335 -2Z" />
<glyph unicode="l" glyph-name="l" horiz-adv-x="264" d="M85 -13T63 5T40 31V558L-4 573V642Q156 665 173 665Q178 665 195 647T213 622V95L256 80V12Q108 -13 92 -13Q85 -13 63 5Z" />
<glyph unicode="m" glyph-name="m" horiz-adv-x="752" d="M99 -13T77 5T54 31V368L10 383V452Q163 475 180 475Q185 475 202 457T220 432V413Q245 435 272 455T304 475Q416 475 449 413Q521 475 529 475Q618 475 659 444T701 332V95L744 80V12Q595 -13 581 -13Q574
-13 551 5T528 31V330Q528 346 519 352T500 359Q496 359 464 340V95L502 80V12Q358 -13 344 -13Q337 -13 314 5T291 31V330Q291 346 282 352T263 359Q259 359 227 340V95L265 80V12Q121 -13 106 -13Q99 -13 77 5Z" />
<glyph unicode="n" glyph-name="n" horiz-adv-x="523" d="M99 -13T77 5T54 31V369L10 384V453Q163 476 180 476Q185 476 202 458T220 433V414Q245 434 275 455T312 476Q392 476 432 444T472 333V95L515 80V12Q366 -13 352 -13Q345 -13 322 5T299 31V331Q299 347
290 353T271 360Q267 360 227 341V95L270 80V12Q122 -13 106 -13Q99 -13 77 5Z" />
<glyph unicode="o" glyph-name="o" horiz-adv-x="511" d="M149 -13T85 41T20 207Q20 247 28 291T47 360Q61 376 103 404T188 454T246 476Q366 476 428 419T491 255Q491 209 483 167T464 99Q450 83 409 56T327 8T270 -13Q149 -13 85 41ZM297 81Q306 149 306 240Q306
396 243 396Q233 396 227 394Q217 391 211 344T205 222Q205 139 223 104T269 69L297 81Z" />
<glyph unicode="p" glyph-name="p" horiz-adv-x="509" d="M82 -186T65 -168T47 -143L54 39V369L10 384V453Q50 459 109 467T180 476Q185 476 202 458T220 433V412Q243 430 274 453T308 476Q395 476 442 415T489 249Q489 209 481 167T462 99Q448 84 407 57T324
8T267 -13L227 -8V-79L271 -94V-163Q243 -169 173 -177T87 -186Q82 -186 65 -168ZM293 74T298 117T304 234Q304 285 296 322T271 360Q266 360 227 339V100Q275 56 284 65Q293 74 298 117Z" />
<glyph unicode="q" glyph-name="q" horiz-adv-x="499" d="M317 -186T300 -168T282 -143L291 45L284 47Q206 -13 201 -13Q114 -13 67 46T20 205Q20 248 28 292T47 364Q61 379 102 406T185 455T242 477Q257 477 455 436V-79L499 -94V-163Q339 -186 322 -186Q317
-186 300 -168ZM244 103T282 124V363Q234 405 226 399Q205 383 205 220Q205 173 213 138T238 103Q244 103 282 124Z" />
<glyph unicode="r" glyph-name="r" horiz-adv-x="393" d="M99 -13T77 5T54 31V369L10 384V453Q163 476 180 476Q185 476 202 458T220 433V385Q246 417 274 448T307 480Q341 480 383 467Q384 464 391 446T398 412Q398 401 386 372T360 317T343 291Q292 320 276
320Q269 320 227 307V109L300 88V16Q125 -13 106 -13Q99 -13 77 5Z" />
<glyph unicode="s" glyph-name="s" horiz-adv-x="402" d="M219 -13T138 -9T15 0L18 174H98L119 93Q145 84 178 76T225 68Q231 68 234 82T238 102Q238 119 224 130T178 158Q161 166 134 181Q64 221 41 253T18 327Q18 360 26 381Q48 408 94 442T162 476Q204 476
269 474T365 468L362 319H273L267 375Q258 378 219 386T170 395Q164 395 162 389T160 378Q160 363 183 347T244 311Q294 283 321 266T370 222T392 165Q392 124 383 102Q371 83 345 55T292 7T246 -13Q219 -13 138 -9Z" />
<glyph unicode="t" glyph-name="t" horiz-adv-x="363" d="M145 -13T125 5T88 48T71 88V376H-4V442L71 467L181 594Q189 600 244 579V462H347V375H244V129Q244 111 250 104T266 96L359 90V7Q308 0 239 -6T155 -13Q145 -13 125 5Z" />
<glyph unicode="u" glyph-name="u" horiz-adv-x="525" d="M133 -13T93 19T53 130V368L10 383V451Q159 476 173 476Q180 476 203 458T226 432V132Q226 116 235 110T254 103Q260 103 298 122V368L255 383V451Q403 476 419 476Q426 476 448 458T471 432V94L515 79V10Q362
-13 345 -13Q340 -13 323 5T305 30V49Q280 29 250 8T213 -13Q133 -13 93 19Z" />
<glyph unicode="v" glyph-name="v" horiz-adv-x="471" d="M160 -13T139 0L47 369L0 383V452Q152 476 162 476Q168 476 188 460T211 437L248 219L255 134H265L320 380L254 389V462Q433 476 443 476Q449 476 462 455T476 425L345 6Q172 -13 163 -13Q160 -13 139 0Z" />
<glyph unicode="w" glyph-name="w" horiz-adv-x="727" d="M140 -13T119 0L45 369L-2 383V452Q148 476 158 476Q164 476 185 460T208 437L241 219L252 146H262L329 306L305 369L255 383V452Q405 476 415 476Q421 476 442 460T465 437L511 219L527 146H537L576 380L508
389V462Q676 476 686 476Q692 476 706 455T720 425L620 6Q459 -13 450 -13Q446 -13 426 0L377 159H368L313 6Q152 -13 143 -13Q140 -13 119 0Z" />
<glyph unicode="x" glyph-name="x" horiz-adv-x="501" d="M25 -13T18 11T10 44L154 238L69 369L22 380V453Q178 476 187 476Q194 476 207 463T225 440L295 310L329 385L286 392V462Q462 476 473 476Q477 476 484 451T491 417L355 236L446 94L496 83V10Q341 -13
331 -13Q323 -13 309 0T291 23L216 162L174 82L225 74V0Q42 -13 29 -13Q25 -13 18 11Z" />
<glyph unicode="y" glyph-name="y" horiz-adv-x="471" d="M209 -186T192 -156T176 -119L219 2L165 -4Q162 -4 141 9L47 369L2 383V452Q152 476 162 476Q168 476 189 460T213 437L250 219L255 124H265L322 380L256 389V462Q433 476 443 476Q449 476 463 454T476
425L347 20L327 -85L382 -103L380 -166Q231 -186 214 -186Q209 -186 192 -156Z" />
<glyph unicode="z" glyph-name="z" horiz-adv-x="423" d="M26 7T17 22T3 48Q14 68 24 84T43 114Q144 283 190 366L187 378L116 385L105 316H23L13 462H369Q376 454 385 440T398 415Q318 268 241 132L224 102V88L307 81L322 169H406L410 0H32Q26 7 17 22Z" />
<glyph unicode="{" glyph-name="braceleft" horiz-adv-x="345" d="M95 -111V163L23 229V339L95 405V680L314 691L321 616L247 599V339L170 284L247 229V-21L321 -39L315 -123L95 -111Z" />
<glyph unicode="|" glyph-name="bar" horiz-adv-x="249" d="M60 679H189V-180H60V679Z" />
<glyph unicode="}" glyph-name="braceright" horiz-adv-x="345" d="M24 -48L98 -31V229L175 284L98 339V589L24 607L30 691L250 679V405L322 339V229L250 163V-112L31 -123L24 -48Z" />
<glyph unicode="~" glyph-name="asciitilde" horiz-adv-x="609" d="M354 246T264 271Q256 273 231 279T192 285Q176 285 163 277T125 250L75 313Q101 347 142 380T203 414Q255 414 345 389Q353 387 378 381T417 375Q433 375 446 383T484 410L534 347Q508 313 467
280T406 246Q354 246 264 271Z" />
<glyph unicode="&#xa0;" glyph-name="uni00A0" horiz-adv-x="168" />
<glyph unicode="&#xa1;" glyph-name="exclamdown" horiz-adv-x="324" d="M79 461Q156 471 209 471Q217 471 231 457T244 436L234 334H88L79 461ZM99 -196T86 -184T72 -166L102 258Q183 271 197 271Q202 271 213 264T224 252L252 -172Q122 -196 104 -196Q99 -196 86 -184Z" />
<glyph unicode="&#xa2;" glyph-name="cent" horiz-adv-x="425" d="M221 152T286 152H400V82Q395 80 357 65T280 38V-62H173V34Q108 51 74 107T40 246Q40 289 48 331T67 401Q78 414 108 435T172 477V602H279L278 516Q345 512 400 493L397 332H304L286 416Q262 431
251 431Q244 431 240 427Q231 420 226 379T221 276Q221 152 286 152Z" />
<glyph unicode="&#xa3;" glyph-name="sterling" horiz-adv-x="589" d="M549 0H227Q177 0 67 -15L48 69Q82 78 96 93T115 138T119 233H51L58 320H119Q121 421 140 476T201 553T315 575Q348 575 395 571T475 562T525 556L546 553L531 356H445L441 455Q336 476 327
476Q310 476 304 457T297 390Q297 376 299 320H409L400 233H300Q297 185 287 158T256 105L438 87L452 205H539L549 0Z" />
<glyph unicode="&#xa4;" glyph-name="currency" horiz-adv-x="714" d="M75 152L152 233Q120 291 120 364Q120 438 156 499L75 584L139 649L215 568Q280 619 366 619Q445 619 506 576L575 649L639 584L567 508Q602 450 602 374Q602 296 562 233L639 152L575 87L500
166Q437 119 356 119Q271 119 212 164L139 87L75 152ZM412 250T438 282T465 369Q465 421 440 454T363 488Q311 488 284 456T257 369Q257 317 283 284T360 250Q412 250 438 282Z" />
<glyph unicode="&#xa5;" glyph-name="yen" horiz-adv-x="635" d="M149 71L225 86V134H103L111 221H225L207 257H103L111 344H164L109 464L25 485V557H323L324 477L285 470L333 334H345L395 465L348 477V557H610V485L529 466L470 344H540L532 257H423L409 231V221H540L532
134H409V93L488 79L489 -1H150L149 71Z" />
<glyph unicode="&#xa6;" glyph-name="brokenbar" horiz-adv-x="249" d="M60 679H189V307H60V679ZM60 185H189V-181H60V185Z" />
<glyph unicode="&#xa7;" glyph-name="section" horiz-adv-x="554" d="M256 -104T186 -101T78 -95L90 77H165L174 -9Q227 -20 253 -20Q259 -20 264 -11T269 10Q269 37 250 58T192 107Q152 135 130 153T92 198T75 259Q75 285 82 305Q109 339 163 375Q119 417 119
480Q119 504 125 522Q134 540 168 564T238 608T290 627Q318 626 369 622T467 614L459 446H385L373 526Q300 548 285 548Q278 548 268 537T258 515Q258 494 282 473T357 418Q423 374 457 340T492 262Q492 234 483 209Q473 187 408 129Q454 86 454 35Q454 1 446 -21Q436
-39 408 -58T348 -91T302 -104Q256 -104 186 -101ZM322 208T322 221Q322 250 303 270T247 315Q242 305 242 291Q242 266 261 245T317 198Q322 208 322 221Z" />
<glyph unicode="&#xa8;" glyph-name="dieresis" horiz-adv-x="383" d="M0 664L143 671L169 641L157 537H11L0 664ZM214 664L357 671L383 641L371 537H225L214 664Z" />
<glyph unicode="&#xa9;" glyph-name="copyright" horiz-adv-x="876" d="M309 49T228 100T108 237T70 431Q70 538 110 624T235 762T443 813Q567 813 648 762T768 625T806 431Q806 324 766 238T641 100T433 49Q309 49 228 100ZM526 149T584 187T670 288T698 429Q698
508 670 572T584 674T438 713Q350 713 293 676T208 575T180 433Q180 354 207 290T293 188T438 149Q526 149 584 187ZM351 256T319 304T286 428Q286 494 300 541Q317 563 364 592T427 622Q448 621 483 619T548 613L543 470H494L485 548Q432 560 420 560Q406 560
399 527T392 447Q392 381 404 348T454 318L533 324L537 273Q505 265 472 261T419 256Q351 256 319 304Z" />
<glyph unicode="&#xaa;" glyph-name="ordfeminine" horiz-adv-x="436" d="M97 319T62 363T26 483Q26 515 32 548T45 602Q61 620 118 653T193 686Q207 686 272 677T377 661V399L410 388V336Q379 331 335 326T266 319Q262 319 249 333T236 351V367L218 355Q166 319
162 319Q97 319 62 363ZM205 410T216 417T231 426V601Q222 609 210 617T193 626Q188 626 185 589T181 494Q181 455 185 433T202 410Q205 410 216 417Z" />
<glyph unicode="&#xab;" glyph-name="guillemotleft" horiz-adv-x="528" d="M25 180V280L186 436L251 390L184 239V221L251 70L186 24L25 180ZM257 180V280L418 436L483 390L416 239V221L483 70L418 24L257 180Z" />
<glyph unicode="&#xac;" glyph-name="logicalnot" horiz-adv-x="463" d="M443 118H320V226H10V344H443V118Z" />
<glyph unicode="&#xad;" glyph-name="uni00AD" horiz-adv-x="308" d="M30 302H278V186H30V302Z" />
<glyph unicode="&#xae;" glyph-name="registered" horiz-adv-x="698" d="M201 213T131 297T60 513Q60 597 92 665T189 773T353 813Q497 813 567 729T638 513Q638 429 606 361T509 253T345 213Q201 213 131 297ZM446 302T495 361T544 512Q544 603 495 663T349 724Q251
724 204 665T156 514Q156 423 204 363T349 302Q446 302 495 361ZM228 411L253 414V620L228 626V657H375Q417 657 438 639T459 579Q459 551 449 530T420 496V488L459 421L485 412L487 381H400L350 485H328V415L350 412L351 381H228V411ZM345 529Q382 529 382 574Q382
598 377 609T356 620L328 618V529H345Z" />
<glyph unicode="&#xaf;" glyph-name="overscore" horiz-adv-x="314" d="M0 652H314V547H0V652Z" />
<glyph unicode="&#xb0;" glyph-name="degree" horiz-adv-x="327" d="M98 361T64 398T30 490Q30 526 46 558T92 610T165 630Q229 630 263 593T297 501Q297 465 281 433T235 381T162 361Q98 361 64 398ZM183 448T194 462T206 496Q206 515 195 529T163 543Q142 543
131 529T119 495Q119 476 130 462T162 448Q183 448 194 462Z" />
<glyph unicode="&#xb1;" glyph-name="plusminus" horiz-adv-x="542" d="M467 390V280H330V129H212V280H75V390H213V540H331V390H467ZM75 83H467V-27H75V83Z" />
<glyph unicode="&#xb2;" glyph-name="uni00B2" horiz-adv-x="439" d="M399 499L396 363H53L44 418L171 565Q190 586 190 618Q190 636 176 636Q169 636 133 617L127 552H60L55 696Q173 716 238 716Q305 716 340 694T376 619Q376 582 348 547L270 453L271 443H326L335
499H399Z" />
<glyph unicode="&#xb3;" glyph-name="uni00B3" horiz-adv-x="469" d="M376 545T393 526T410 482Q410 452 388 423T325 375T235 356Q222 356 164 362T75 372L78 435H185Q201 435 210 447T219 474Q219 485 215 493T202 502H146V563Q179 566 199 587T219 631Q219
640 216 646T207 652Q201 652 147 629L141 583H74L72 705Q174 717 240 717Q313 717 354 698T396 632Q396 590 342 561L343 553Q376 545 393 526Z" />
<glyph unicode="&#xb4;" glyph-name="acute" horiz-adv-x="234" d="M0 574L145 732L234 653L227 599L49 516L0 574Z" />
<glyph unicode="&#xb5;" glyph-name="uni00B5" horiz-adv-x="557" d="M535 15Q508 7 478 0T438 -8Q416 -8 382 5T326 41Q297 22 270 7T238 -8Q224 -8 217 -7V-67Q217 -95 228 -116T251 -143Q265 -149 311 -149L323 -211Q316 -213 278 -226T226 -240Q211 -240 171
-213T99 -150T66 -83V377L24 388L23 456Q52 461 109 468T189 477Q196 477 215 459T234 430V125Q234 104 247 94T279 84Q291 84 306 89V377L264 388L263 456Q287 460 345 467T429 477Q436 477 455 458T475 430V116Q475 91 487 83T525 72L535 15Z" />
<glyph unicode="&#xb6;" glyph-name="paragraph" horiz-adv-x="841" d="M512 613L767 612V526L667 509V105L767 74V0H512V613ZM235 72L295 97V161L232 162Q139 163 93 235T46 416Q46 505 91 558T223 612H450V0H235V72Z" />
<glyph unicode="&#xb7;" glyph-name="middot" horiz-adv-x="247" d="M75 248T57 267T39 297L36 381Q63 388 104 394T168 401Q175 401 193 380T211 351L202 263Q89 248 82 248Q75 248 57 267Z" />
<glyph unicode="&#xb8;" glyph-name="cedilla" horiz-adv-x="203" d="M0 -174Q40 -158 58 -148T77 -125Q77 -115 61 -107T20 -96L8 -52L30 11L111 8L112 -37Q155 -46 179 -68T203 -117Q203 -149 187 -176Q177 -187 125 -209T35 -244L0 -174Z" />
<glyph unicode="&#xb9;" glyph-name="uni00B9" horiz-adv-x="437" d="M392 427V363H71V429L155 441V608L66 603V677L246 721L324 683V436L392 427Z" />
<glyph unicode="&#xba;" glyph-name="ordmasculine" horiz-adv-x="425" d="M133 317T80 357T26 483Q26 513 32 546T46 599Q62 617 122 651T201 686Q295 686 347 644T399 519Q399 485 393 454T379 402Q363 383 304 350T227 317Q133 317 80 357ZM239 392Q244 430
244 508Q244 557 239 581T223 615Q219 618 210 620T196 623Q190 623 186 586T181 495Q181 431 192 407T223 383L239 392Z" />
<glyph unicode="&#xbb;" glyph-name="guillemotright" horiz-adv-x="528" d="M45 70L112 221V239L45 390L110 436L271 280V180L110 24L45 70ZM277 70L344 221V239L277 390L342 436L503 280V180L342 24L277 70Z" />
<glyph unicode="&#xbc;" glyph-name="onequarter" horiz-adv-x="1060" d="M392 593V529H71V595L155 607V774L66 769V843L246 887L324 849V602L392 593ZM995 67H937V0H792V67H603L589 147L704 344H937V154H995V67ZM792 154V255H785L735 160L736 154H792ZM600 628H733L445
-14H311L600 628Z" />
<glyph unicode="&#xbd;" glyph-name="onehalf" horiz-adv-x="1018" d="M392 593V529H71V595L155 607V774L66 769V843L246 887L324 849V602L392 593ZM596 628H729L441 -14H307L596 628ZM978 136L975 0H632L623 55L750 202Q769 223 769 255Q769 273 755 273Q748
273 712 254L706 189H639L634 333Q752 353 817 353Q884 353 919 331T955 256Q955 219 927 184L849 90L850 80H905L914 136H978Z" />
<glyph unicode="&#xbe;" glyph-name="threequarters" horiz-adv-x="1035" d="M376 711T393 692T410 648Q410 618 388 589T325 541T235 522Q222 522 164 528T75 538L78 601H185Q201 601 210 613T219 640Q219 651 215 659T202 668H146V729Q179 732 199 753T219 797Q219
806 216 812T207 818Q201 818 147 795L141 749H74L72 871Q174 883 240 883Q313 883 354 864T396 798Q396 756 342 727L343 719Q376 711 393 692ZM970 67H912V0H767V67H578L564 147L679 344H912V154H970V67ZM767 154V255H760L710 160L711 154H767ZM578 628H711L423
-14H289L578 628Z" />
<glyph unicode="&#xbf;" glyph-name="questiondown" horiz-adv-x="533" d="M253 328L244 457Q306 464 367 464Q375 464 391 448T407 425L394 328H253ZM472 -172Q334 -206 248 -206Q68 -206 68 -57Q68 -23 81 5T113 54T169 109Q199 136 200 137Q233 168 247 195T263
268Q344 281 358 281Q363 281 374 274T385 262L390 173Q392 131 372 100T312 33Q269 -5 252 -30T235 -78Q235 -92 240 -104T258 -117Q277 -117 355 -93L378 19H466L472 -172Z" />
<glyph unicode="&#xc0;" glyph-name="Agrave" horiz-adv-x="664" d="M-6 72L56 92L225 606Q253 610 318 616T409 625Q412 625 433 612L604 92L666 72V0H336V80L404 97L384 171H227L212 97L281 80V0H-6V72ZM359 266L310 471H300L249 266H359ZM212 691L191 742L249
841L438 726L414 657L212 691Z" />
<glyph unicode="&#xc1;" glyph-name="Aacute" horiz-adv-x="664" d="M-6 72L56 92L225 606Q253 610 318 616T409 625Q412 625 433 612L604 92L666 72V0H336V80L404 97L384 171H227L212 97L281 80V0H-6V72ZM359 266L310 471H300L249 266H359ZM207 726L398 836L454
742L433 691L231 657L207 726Z" />
<glyph unicode="&#xc2;" glyph-name="Acircumflex" horiz-adv-x="664" d="M-6 72L56 92L225 606Q253 610 318 616T409 625Q412 625 433 612L604 92L666 72V0H336V80L404 97L384 171H227L212 97L281 80V0H-6V72ZM359 266L310 471H300L249 266H359ZM156 720L277
841H381L502 720L447 659L334 715H324L211 659L156 720Z" />
<glyph unicode="&#xc3;" glyph-name="Atilde" horiz-adv-x="664" d="M-6 72L56 92L225 606Q253 610 318 616T409 625Q412 625 433 612L604 92L666 72V0H336V80L404 97L384 171H227L212 97L281 80V0H-6V72ZM359 266L310 471H300L249 266H359ZM379 664T358 672T310
693Q280 709 270 709Q254 709 217 675L164 734Q180 757 214 791T265 826Q285 826 306 818T354 797Q384 781 394 781Q410 781 447 815L500 756Q484 733 450 699T399 664Q379 664 358 672Z" />
<glyph unicode="&#xc4;" glyph-name="Adieresis" horiz-adv-x="664" d="M-6 72L56 92L225 606Q253 610 318 616T409 625Q412 625 433 612L604 92L666 72V0H336V80L404 97L384 171H227L212 97L281 80V0H-6V72ZM359 266L310 471H300L249 266H359ZM131 788L274 795L300
765L288 661H142L131 788ZM355 788L498 795L524 765L512 661H366L355 788Z" />
<glyph unicode="&#xc5;" glyph-name="Aring" horiz-adv-x="664" d="M-6 72L56 92L225 606Q253 610 318 616T409 625Q412 625 433 612L604 92L666 72V0H336V80L404 97L384 171H227L212 97L281 80V0H-6V72ZM359 266L310 471H300L249 266H359ZM273 657T245 684T216
772Q216 826 245 855T329 885Q385 885 413 858T442 770Q442 717 413 687T329 657Q273 657 245 684ZM339 737T348 743Q352 754 352 772Q352 790 347 797T329 805Q319 805 310 799Q306 788 306 770Q306 752 311 745T329 737Q339 737 348 743Z" />
<glyph unicode="&#xc6;" glyph-name="AE" horiz-adv-x="927" d="M0 72L63 92L327 515L267 540V612H897L884 417H795L782 524L640 510V365L773 360V266L640 259V104L791 88L809 199H898L902 0H389V72L449 97V171H259L218 97L287 80V0H0V72ZM449 266V500H437L312 266H449Z" />
<glyph unicode="&#xc7;" glyph-name="Ccedilla" horiz-adv-x="496" d="M358 -46T382 -68T406 -117Q406 -149 390 -176Q380 -187 328 -209T238 -244L203 -174Q243 -158 261 -148T280 -125Q280 -115 264 -107T223 -96L211 -52L226 -10Q117 2 66 73T15 287Q15 396
48 485Q72 512 121 545T220 601T292 625Q305 625 438 606Q463 602 471 601L459 384H370L355 510Q335 517 309 523T265 529Q249 529 242 524Q231 517 223 456T214 308Q214 193 240 147T323 101H360L379 224H466L472 14Q415 2 314 -9L315 -37Q358 -46 382 -68Z" />
<glyph unicode="&#xc8;" glyph-name="Egrave" horiz-adv-x="558" d="M20 72L80 97V515L20 540V612H528L515 417H426L413 524L271 510V365L404 360V266L271 259V104L422 88L440 199H529L533 0H20V72ZM174 691L153 742L211 841L400 726L376 657L174 691Z" />
<glyph unicode="&#xc9;" glyph-name="Eacute" horiz-adv-x="558" d="M20 72L80 97V515L20 540V612H528L515 417H426L413 524L271 510V365L404 360V266L271 259V104L422 88L440 199H529L533 0H20V72ZM169 726L360 836L416 742L395 691L193 657L169 726Z" />
<glyph unicode="&#xca;" glyph-name="Ecircumflex" horiz-adv-x="558" d="M20 72L80 97V515L20 540V612H528L515 417H426L413 524L271 510V365L404 360V266L271 259V104L422 88L440 199H529L533 0H20V72ZM118 720L239 841H343L464 720L409 659L296 715H286L173
659L118 720Z" />
<glyph unicode="&#xcb;" glyph-name="Edieresis" horiz-adv-x="558" d="M20 72L80 97V515L20 540V612H528L515 417H426L413 524L271 510V365L404 360V266L271 259V104L422 88L440 199H529L533 0H20V72ZM93 788L236 795L262 765L250 661H104L93 788ZM317 788L460
795L486 765L474 661H328L317 788Z" />
<glyph unicode="&#xcc;" glyph-name="Igrave" horiz-adv-x="361" d="M20 72L85 97V515L20 540V612H341V540L276 515V97L341 72V0H20V72ZM63 691L42 742L100 841L289 726L265 657L63 691Z" />
<glyph unicode="&#xcd;" glyph-name="Iacute" horiz-adv-x="361" d="M20 72L85 97V515L20 540V612H341V540L276 515V97L341 72V0H20V72ZM58 726L249 836L305 742L284 691L82 657L58 726Z" />
<glyph unicode="&#xce;" glyph-name="Icircumflex" horiz-adv-x="361" d="M20 72L85 97V515L20 540V612H341V540L276 515V97L341 72V0H20V72ZM7 720L128 841H232L353 720L298 659L185 715H175L62 659L7 720Z" />
<glyph unicode="&#xcf;" glyph-name="Idieresis" horiz-adv-x="361" d="M20 72L85 97V515L20 540V612H341V540L276 515V97L341 72V0H20V72ZM-18 788L125 795L151 765L139 661H-7L-18 788ZM206 788L349 795L375 765L363 661H217L206 788Z" />
<glyph unicode="&#xd0;" glyph-name="Eth" horiz-adv-x="614" d="M443 612T490 584T568 491T599 322Q599 158 544 79T388 0H20V72L80 97V277H15V338H80V515L20 540V612H388Q443 612 490 584ZM369 91T386 149T404 312Q404 402 386 462T337 522L271 515V338H365V277H271V98L337
91Q369 91 386 149Z" />
<glyph unicode="&#xd1;" glyph-name="Ntilde" horiz-adv-x="669" d="M418 -13T397 0L289 193Q242 277 219 360H209L218 140V105L288 80V0H20V72L80 97V515L20 540V612H287L412 376Q440 323 460 250H470L461 476V507L392 532V612H659V540L599 515V6Q430 -13 421
-13Q418 -13 397 0ZM388 664T367 672T319 693Q289 709 279 709Q263 709 226 675L173 734Q189 757 223 791T274 826Q294 826 315 818T363 797Q393 781 403 781Q419 781 456 815L509 756Q493 733 459 699T408 664Q388 664 367 672Z" />
<glyph unicode="&#xd2;" glyph-name="Ograve" horiz-adv-x="610" d="M165 -13T90 59T15 287Q15 396 48 485Q72 512 121 545T220 601T292 625Q445 625 520 553T595 324Q595 210 562 117Q539 93 489 62T389 9T318 -13Q165 -13 90 59ZM320 81T349 89T384 100Q395
179 395 305Q395 387 389 434T361 506T298 532Q258 532 242 524Q231 519 223 457T214 308Q214 220 223 172T252 102T311 81Q320 81 349 89ZM192 691L171 742L229 841L418 726L394 657L192 691Z" />
<glyph unicode="&#xd3;" glyph-name="Oacute" horiz-adv-x="610" d="M165 -13T90 59T15 287Q15 396 48 485Q72 512 121 545T220 601T292 625Q445 625 520 553T595 324Q595 210 562 117Q539 93 489 62T389 9T318 -13Q165 -13 90 59ZM320 81T349 89T384 100Q395
179 395 305Q395 387 389 434T361 506T298 532Q258 532 242 524Q231 519 223 457T214 308Q214 220 223 172T252 102T311 81Q320 81 349 89ZM187 726L378 836L434 742L413 691L211 657L187 726Z" />
<glyph unicode="&#xd4;" glyph-name="Ocircumflex" horiz-adv-x="610" d="M165 -13T90 59T15 287Q15 396 48 485Q72 512 121 545T220 601T292 625Q445 625 520 553T595 324Q595 210 562 117Q539 93 489 62T389 9T318 -13Q165 -13 90 59ZM320 81T349 89T384 100Q395
179 395 305Q395 387 389 434T361 506T298 532Q258 532 242 524Q231 519 223 457T214 308Q214 220 223 172T252 102T311 81Q320 81 349 89ZM136 720L257 841H361L482 720L427 659L314 715H304L191 659L136 720Z" />
<glyph unicode="&#xd5;" glyph-name="Otilde" horiz-adv-x="610" d="M165 -13T90 59T15 287Q15 396 48 485Q72 512 121 545T220 601T292 625Q445 625 520 553T595 324Q595 210 562 117Q539 93 489 62T389 9T318 -13Q165 -13 90 59ZM320 81T349 89T384 100Q395
179 395 305Q395 387 389 434T361 506T298 532Q258 532 242 524Q231 519 223 457T214 308Q214 220 223 172T252 102T311 81Q320 81 349 89ZM359 664T338 672T290 693Q260 709 250 709Q234 709 197 675L144 734Q160 757 194 791T245 826Q265 826 286 818T334 797Q364
781 374 781Q390 781 427 815L480 756Q464 733 430 699T379 664Q359 664 338 672Z" />
<glyph unicode="&#xd6;" glyph-name="Odieresis" horiz-adv-x="610" d="M165 -13T90 59T15 287Q15 396 48 485Q72 512 121 545T220 601T292 625Q445 625 520 553T595 324Q595 210 562 117Q539 93 489 62T389 9T318 -13Q165 -13 90 59ZM320 81T349 89T384 100Q395
179 395 305Q395 387 389 434T361 506T298 532Q258 532 242 524Q231 519 223 457T214 308Q214 220 223 172T252 102T311 81Q320 81 349 89ZM111 788L254 795L280 765L268 661H122L111 788ZM335 788L478 795L504 765L492 661H346L335 788Z" />
<glyph unicode="&#xd7;" glyph-name="multiply" horiz-adv-x="555" d="M364 235L485 110L401 21L278 147L154 21L70 110L191 235L70 359L157 448L278 324L398 448L485 359L364 235Z" />
<glyph unicode="&#xd8;" glyph-name="Oslash" horiz-adv-x="610" d="M595 484T595 324Q595 210 562 117Q539 93 489 62T389 9T318 -13Q219 -13 155 16L99 -68L46 -74L27 -56L98 52Q15 124 15 287Q15 396 48 485Q72 512 121 545T220 601T292 625Q391 625 458 595L499
657L552 662L569 640L515 558Q595 484 595 324ZM214 276T216 230L379 475Q368 504 349 518T298 532Q258 532 242 524Q231 519 223 457T214 308Q214 276 216 230ZM395 179T395 305Q395 354 394 376L233 134Q244 106 263 94T311 81Q320 81 349 89T384 100Q395 179
395 305Z" />
<glyph unicode="&#xd9;" glyph-name="Ugrave" horiz-adv-x="673" d="M193 -13T150 10T88 81T70 205V515L10 540V612H310V532L257 505V240Q257 198 264 177T283 149T316 142Q337 142 368 150T406 161V505L353 532V612H653V540L593 515V97L653 72V0H436L413 61Q376
40 326 14T269 -13Q193 -13 150 10ZM214 691L193 742L251 841L440 726L416 657L214 691Z" />
<glyph unicode="&#xda;" glyph-name="Uacute" horiz-adv-x="673" d="M193 -13T150 10T88 81T70 205V515L10 540V612H310V532L257 505V240Q257 198 264 177T283 149T316 142Q337 142 368 150T406 161V505L353 532V612H653V540L593 515V97L653 72V0H436L413 61Q376
40 326 14T269 -13Q193 -13 150 10ZM209 726L400 836L456 742L435 691L233 657L209 726Z" />
<glyph unicode="&#xdb;" glyph-name="Ucircumflex" horiz-adv-x="673" d="M193 -13T150 10T88 81T70 205V515L10 540V612H310V532L257 505V240Q257 198 264 177T283 149T316 142Q337 142 368 150T406 161V505L353 532V612H653V540L593 515V97L653 72V0H436L413
61Q376 40 326 14T269 -13Q193 -13 150 10ZM158 720L279 841H383L504 720L449 659L336 715H326L213 659L158 720Z" />
<glyph unicode="&#xdc;" glyph-name="Udieresis" horiz-adv-x="673" d="M193 -13T150 10T88 81T70 205V515L10 540V612H310V532L257 505V240Q257 198 264 177T283 149T316 142Q337 142 368 150T406 161V505L353 532V612H653V540L593 515V97L653 72V0H436L413 61Q376
40 326 14T269 -13Q193 -13 150 10ZM133 788L276 795L302 765L290 661H144L133 788ZM357 788L500 795L526 765L514 661H368L357 788Z" />
<glyph unicode="&#xdd;" glyph-name="Yacute" horiz-adv-x="595" d="M137 72L202 97V243L57 520L-5 540V612H297V532L247 515L314 351H324Q334 371 355 423T392 515L341 532V612H600V540L538 520Q526 493 478 402T393 245V97L458 72V0H137V72ZM194 726L385 836L441
742L420 691L218 657L194 726Z" />
<glyph unicode="&#xde;" glyph-name="Thorn" horiz-adv-x="581" d="M499 499T537 457T576 325Q576 229 526 184T394 138H276V97L341 72V0H20V72L85 97V515L20 540V612H341V540L276 515V499H423Q499 499 537 457ZM353 239T368 243T392 263T400 312Q400 355 387
380T346 406L276 395V239H323Q353 239 368 243Z" />
<glyph unicode="&#xdf;" glyph-name="germandbls" horiz-adv-x="557" d="M404 337T418 321T464 277Q509 240 533 208T557 130Q557 112 553 92Q546 76 521 52T469 10T429 -9Q402 -9 335 -5T217 3V-16Q217 -44 185 -84T113 -155T56 -186Q23 -186 -66 -151V-73Q29
-73 40 -68Q48 -65 49 -45T51 35V507Q51 527 82 565T152 634T217 665Q472 665 472 521Q472 494 462 472T433 423Q418 399 411 386T404 356Q404 337 418 321ZM371 81T376 89T381 111Q381 134 366 155T318 208Q283 242 265 267T246 322Q246 358 261 385T304 445Q322
467 329 478T336 500Q336 514 330 522T309 538Q250 569 233 569Q225 569 221 553T217 516V114Q337 81 363 81Q371 81 376 89Z" />
<glyph unicode="&#xe0;" glyph-name="agrave" horiz-adv-x="507" d="M114 -13T67 46T20 205Q20 248 28 292T47 364Q61 379 102 406T185 455T242 476Q257 476 455 443V94L499 79V10Q346 -13 329 -13Q324 -13 307 5T289 30V51Q266 33 235 10T201 -13Q114 -13 67
46ZM244 103T282 124V363Q234 405 226 399Q205 384 205 220Q205 173 213 138T238 103Q244 103 282 124ZM138 599L131 653L220 732L365 574L316 516L138 599Z" />
<glyph unicode="&#xe1;" glyph-name="aacute" horiz-adv-x="507" d="M114 -13T67 46T20 205Q20 248 28 292T47 364Q61 379 102 406T185 455T242 476Q257 476 455 443V94L499 79V10Q346 -13 329 -13Q324 -13 307 5T289 30V51Q266 33 235 10T201 -13Q114 -13 67
46ZM244 103T282 124V363Q234 405 226 399Q205 384 205 220Q205 173 213 138T238 103Q244 103 282 124ZM159 574L304 732L393 653L386 599L208 516L159 574Z" />
<glyph unicode="&#xe2;" glyph-name="acircumflex" horiz-adv-x="507" d="M114 -13T67 46T20 205Q20 248 28 292T47 364Q61 379 102 406T185 455T242 476Q257 476 455 443V94L499 79V10Q346 -13 329 -13Q324 -13 307 5T289 30V51Q266 33 235 10T201 -13Q114 -13
67 46ZM244 103T282 124V363Q234 405 226 399Q205 384 205 220Q205 173 213 138T238 103Q244 103 282 124ZM85 580L206 722H310L431 580L366 519L263 600H253L150 519L85 580Z" />
<glyph unicode="&#xe3;" glyph-name="atilde" horiz-adv-x="507" d="M114 -13T67 46T20 205Q20 248 28 292T47 364Q61 379 102 406T185 455T242 476Q257 476 455 443V94L499 79V10Q346 -13 329 -13Q324 -13 307 5T289 30V51Q266 33 235 10T201 -13Q114 -13 67
46ZM244 103T282 124V363Q234 405 226 399Q205 384 205 220Q205 173 213 138T238 103Q244 103 282 124ZM307 531T286 539T238 560Q208 576 198 576Q182 576 145 542L92 601Q108 624 142 658T193 693Q213 693 234 685T282 664Q312 648 322 648Q338 648 375 682L428
623Q412 600 378 566T327 531Q307 531 286 539Z" />
<glyph unicode="&#xe4;" glyph-name="adieresis" horiz-adv-x="507" d="M114 -13T67 46T20 205Q20 248 28 292T47 364Q61 379 102 406T185 455T242 476Q257 476 455 443V94L499 79V10Q346 -13 329 -13Q324 -13 307 5T289 30V51Q266 33 235 10T201 -13Q114 -13
67 46ZM244 103T282 124V363Q234 405 226 399Q205 384 205 220Q205 173 213 138T238 103Q244 103 282 124ZM67 664L210 671L236 641L224 537H78L67 664ZM281 664L424 671L450 641L438 537H292L281 664Z" />
<glyph unicode="&#xe5;" glyph-name="aring" horiz-adv-x="507" d="M114 -13T67 46T20 205Q20 248 28 292T47 364Q61 379 102 406T185 455T242 476Q257 476 455 443V94L499 79V10Q346 -13 329 -13Q324 -13 307 5T289 30V51Q266 33 235 10T201 -13Q114 -13 67 46ZM244
103T282 124V363Q234 405 226 399Q205 384 205 220Q205 173 213 138T238 103Q244 103 282 124ZM202 510T174 537T145 625Q145 679 174 708T258 738Q314 738 342 711T371 623Q371 570 342 540T258 510Q202 510 174 537ZM268 590T277 596Q281 607 281 625Q281 643
276 650T258 658Q248 658 239 652Q235 641 235 623Q235 605 240 598T258 590Q268 590 277 596Z" />
<glyph unicode="&#xe6;" glyph-name="ae" horiz-adv-x="709" d="M459 163T474 135T517 106L677 114V44Q642 31 574 9T489 -14Q430 -14 387 7T317 69Q287 47 246 17T201 -13Q114 -13 67 46T20 205Q20 248 28 292T47 364Q61 379 102 406T185 455T242 476Q251 476
316 466T432 447Q485 476 504 476Q600 476 647 419T694 221L459 201Q459 163 474 135ZM475 402T468 366T458 277L532 288Q532 329 525 359T508 397Q504 399 495 400T481 402Q475 402 468 366ZM242 103T291 131Q282 164 282 204Q282 242 288 281T304 351Q284 368
258 385T226 399Q205 384 205 220Q205 173 213 138T238 103Q242 103 291 131Z" />
<glyph unicode="&#xe7;" glyph-name="ccedilla" horiz-adv-x="399" d="M201 111T266 111H380V41L356 32Q299 8 250 -6L251 -37Q294 -46 318 -68T342 -117Q342 -149 326 -176Q316 -187 264 -209T174 -244L139 -174Q179 -158 197 -148T216 -125Q216 -115 200 -107T159
-96L147 -52L162 -9Q93 6 57 62T20 205Q20 248 28 290T47 360Q60 375 101 403T182 454T238 476Q268 476 308 470T380 452L377 291H284L266 375Q242 390 231 390Q224 390 220 386Q211 379 206 338T201 235Q201 111 266 111Z" />
<glyph unicode="&#xe8;" glyph-name="egrave" horiz-adv-x="447" d="M127 -14T74 45T20 204Q20 247 28 292T47 364Q61 379 102 406T185 455T242 476Q338 476 385 419T432 221L197 201Q197 163 212 135T255 106L415 114V44Q380 31 312 9T227 -14Q127 -14 74 45ZM270
288Q270 329 263 359T246 397Q242 399 233 400T219 402Q213 402 206 366T196 277L270 288ZM99 599L92 653L181 732L326 574L277 516L99 599Z" />
<glyph unicode="&#xe9;" glyph-name="eacute" horiz-adv-x="447" d="M127 -14T74 45T20 204Q20 247 28 292T47 364Q61 379 102 406T185 455T242 476Q338 476 385 419T432 221L197 201Q197 163 212 135T255 106L415 114V44Q380 31 312 9T227 -14Q127 -14 74 45ZM270
288Q270 329 263 359T246 397Q242 399 233 400T219 402Q213 402 206 366T196 277L270 288ZM120 574L265 732L354 653L347 599L169 516L120 574Z" />
<glyph unicode="&#xea;" glyph-name="ecircumflex" horiz-adv-x="447" d="M127 -14T74 45T20 204Q20 247 28 292T47 364Q61 379 102 406T185 455T242 476Q338 476 385 419T432 221L197 201Q197 163 212 135T255 106L415 114V44Q380 31 312 9T227 -14Q127 -14 74
45ZM270 288Q270 329 263 359T246 397Q242 399 233 400T219 402Q213 402 206 366T196 277L270 288ZM46 580L167 722H271L392 580L327 519L224 600H214L111 519L46 580Z" />
<glyph unicode="&#xeb;" glyph-name="edieresis" horiz-adv-x="447" d="M127 -14T74 45T20 204Q20 247 28 292T47 364Q61 379 102 406T185 455T242 476Q338 476 385 419T432 221L197 201Q197 163 212 135T255 106L415 114V44Q380 31 312 9T227 -14Q127 -14 74
45ZM270 288Q270 329 263 359T246 397Q242 399 233 400T219 402Q213 402 206 366T196 277L270 288ZM28 664L171 671L197 641L185 537H39L28 664ZM242 664L385 671L411 641L399 537H253L242 664Z" />
<glyph unicode="&#xec;" glyph-name="igrave" horiz-adv-x="280" d="M99 -13T77 5T54 31V369L10 384V453Q170 476 187 476Q192 476 209 458T227 433V95L270 80V12Q122 -13 106 -13Q99 -13 77 5ZM8 599L1 653L90 732L235 574L186 516L8 599Z" />
<glyph unicode="&#xed;" glyph-name="iacute" horiz-adv-x="280" d="M99 -13T77 5T54 31V369L10 384V453Q170 476 187 476Q192 476 209 458T227 433V95L270 80V12Q122 -13 106 -13Q99 -13 77 5ZM29 574L174 732L263 653L256 599L78 516L29 574Z" />
<glyph unicode="&#xee;" glyph-name="icircumflex" horiz-adv-x="280" d="M99 -13T77 5T54 31V369L10 384V453Q170 476 187 476Q192 476 209 458T227 433V95L270 80V12Q122 -13 106 -13Q99 -13 77 5ZM-45 580L76 722H180L301 580L236 519L133 600H123L20 519L-45 580Z" />
<glyph unicode="&#xef;" glyph-name="idieresis" horiz-adv-x="280" d="M99 -13T77 5T54 31V369L10 384V453Q170 476 187 476Q192 476 209 458T227 433V95L270 80V12Q122 -13 106 -13Q99 -13 77 5ZM-63 664L80 671L106 641L94 537H-52L-63 664ZM151 664L294 671L320
641L308 537H162L151 664Z" />
<glyph unicode="&#xf0;" glyph-name="eth" horiz-adv-x="493" d="M416 522Q471 438 471 305Q471 207 439 136T350 28T223 -9Q213 -9 171 11T89 55T40 93Q31 115 25 145T18 199Q18 252 39 296T99 366T189 392Q194 392 228 382T292 360Q289 415 279 451L221 421L178
452L175 481L248 519Q215 559 153 560L131 634Q158 637 182 637Q293 637 365 579L435 615L475 582L477 554L416 522ZM295 72T295 247V285Q261 302 245 302Q218 302 206 276T193 207Q193 168 204 120T231 72Q295 72 295 247Z" />
<glyph unicode="&#xf1;" glyph-name="ntilde" horiz-adv-x="523" d="M99 -13T77 5T54 31V369L10 384V453Q163 476 180 476Q185 476 202 458T220 433V414Q245 434 275 455T312 476Q392 476 432 444T472 333V95L515 80V12Q366 -13 352 -13Q345 -13 322 5T299 31V331Q299
347 290 353T271 360Q267 360 227 341V95L270 80V12Q122 -13 106 -13Q99 -13 77 5ZM305 531T284 539T236 560Q206 576 196 576Q180 576 143 542L90 601Q106 624 140 658T191 693Q211 693 232 685T280 664Q310 648 320 648Q336 648 373 682L426 623Q410 600 376
566T325 531Q305 531 284 539Z" />
<glyph unicode="&#xf2;" glyph-name="ograve" horiz-adv-x="511" d="M149 -13T85 41T20 207Q20 247 28 291T47 360Q61 376 103 404T188 454T246 476Q366 476 428 419T491 255Q491 209 483 167T464 99Q450 83 409 56T327 8T270 -13Q149 -13 85 41ZM297 81Q306 149
306 240Q306 396 243 396Q233 396 227 394Q217 391 211 344T205 222Q205 139 223 104T269 69L297 81ZM141 599L134 653L223 732L368 574L319 516L141 599Z" />
<glyph unicode="&#xf3;" glyph-name="oacute" horiz-adv-x="511" d="M149 -13T85 41T20 207Q20 247 28 291T47 360Q61 376 103 404T188 454T246 476Q366 476 428 419T491 255Q491 209 483 167T464 99Q450 83 409 56T327 8T270 -13Q149 -13 85 41ZM297 81Q306 149
306 240Q306 396 243 396Q233 396 227 394Q217 391 211 344T205 222Q205 139 223 104T269 69L297 81ZM162 574L307 732L396 653L389 599L211 516L162 574Z" />
<glyph unicode="&#xf4;" glyph-name="ocircumflex" horiz-adv-x="511" d="M149 -13T85 41T20 207Q20 247 28 291T47 360Q61 376 103 404T188 454T246 476Q366 476 428 419T491 255Q491 209 483 167T464 99Q450 83 409 56T327 8T270 -13Q149 -13 85 41ZM297 81Q306
149 306 240Q306 396 243 396Q233 396 227 394Q217 391 211 344T205 222Q205 139 223 104T269 69L297 81ZM88 580L209 722H313L434 580L369 519L266 600H256L153 519L88 580Z" />
<glyph unicode="&#xf5;" glyph-name="otilde" horiz-adv-x="511" d="M149 -13T85 41T20 207Q20 247 28 291T47 360Q61 376 103 404T188 454T246 476Q366 476 428 419T491 255Q491 209 483 167T464 99Q450 83 409 56T327 8T270 -13Q149 -13 85 41ZM297 81Q306 149
306 240Q306 396 243 396Q233 396 227 394Q217 391 211 344T205 222Q205 139 223 104T269 69L297 81ZM310 531T289 539T241 560Q211 576 201 576Q185 576 148 542L95 601Q111 624 145 658T196 693Q216 693 237 685T285 664Q315 648 325 648Q341 648 378 682L431
623Q415 600 381 566T330 531Q310 531 289 539Z" />
<glyph unicode="&#xf6;" glyph-name="odieresis" horiz-adv-x="511" d="M149 -13T85 41T20 207Q20 247 28 291T47 360Q61 376 103 404T188 454T246 476Q366 476 428 419T491 255Q491 209 483 167T464 99Q450 83 409 56T327 8T270 -13Q149 -13 85 41ZM297 81Q306
149 306 240Q306 396 243 396Q233 396 227 394Q217 391 211 344T205 222Q205 139 223 104T269 69L297 81ZM70 664L213 671L239 641L227 537H81L70 664ZM284 664L427 671L453 641L441 537H295L284 664Z" />
<glyph unicode="&#xf7;" glyph-name="divide" horiz-adv-x="592" d="M249 363T231 382T213 412L210 496Q237 503 278 509T342 516Q349 516 367 495T385 466L376 378Q263 363 256 363Q249 363 231 382ZM90 310H502V200H90V310ZM249 2T231 21T213 51L210 135Q237
142 278 148T342 155Q349 155 367 134T385 105L376 17Q263 2 256 2Q249 2 231 21Z" />
<glyph unicode="&#xf8;" glyph-name="oslash" horiz-adv-x="511" d="M443 415T467 368T491 255Q491 209 483 167T464 99Q450 83 409 56T327 8T270 -13Q224 -13 189 -6L155 -80L96 -87L72 -63L112 22Q20 76 20 207Q20 247 28 291T47 360Q61 376 103 404T188 454T246
476Q286 476 319 470L352 541L414 548L435 524L397 442Q443 415 467 368ZM217 391T211 345T205 224L277 379Q263 396 243 396Q233 396 227 394Q217 391 211 345ZM306 149T306 240V246L233 89Q248 69 269 69L297 81Q306 149 306 240Z" />
<glyph unicode="&#xf9;" glyph-name="ugrave" horiz-adv-x="525" d="M133 -13T93 19T53 130V368L10 383V451Q159 476 173 476Q180 476 203 458T226 432V132Q226 116 235 110T254 103Q260 103 298 122V368L255 383V451Q403 476 419 476Q426 476 448 458T471 432V94L515
79V10Q362 -13 345 -13Q340 -13 323 5T305 30V49Q280 29 250 8T213 -13Q133 -13 93 19ZM125 599L118 653L207 732L352 574L303 516L125 599Z" />
<glyph unicode="&#xfa;" glyph-name="uacute" horiz-adv-x="525" d="M133 -13T93 19T53 130V368L10 383V451Q159 476 173 476Q180 476 203 458T226 432V132Q226 116 235 110T254 103Q260 103 298 122V368L255 383V451Q403 476 419 476Q426 476 448 458T471 432V94L515
79V10Q362 -13 345 -13Q340 -13 323 5T305 30V49Q280 29 250 8T213 -13Q133 -13 93 19ZM146 574L291 732L380 653L373 599L195 516L146 574Z" />
<glyph unicode="&#xfb;" glyph-name="ucircumflex" horiz-adv-x="525" d="M133 -13T93 19T53 130V368L10 383V451Q159 476 173 476Q180 476 203 458T226 432V132Q226 116 235 110T254 103Q260 103 298 122V368L255 383V451Q403 476 419 476Q426 476 448 458T471
432V94L515 79V10Q362 -13 345 -13Q340 -13 323 5T305 30V49Q280 29 250 8T213 -13Q133 -13 93 19ZM72 580L193 722H297L418 580L353 519L250 600H240L137 519L72 580Z" />
<glyph unicode="&#xfc;" glyph-name="udieresis" horiz-adv-x="525" d="M133 -13T93 19T53 130V368L10 383V451Q159 476 173 476Q180 476 203 458T226 432V132Q226 116 235 110T254 103Q260 103 298 122V368L255 383V451Q403 476 419 476Q426 476 448 458T471
432V94L515 79V10Q362 -13 345 -13Q340 -13 323 5T305 30V49Q280 29 250 8T213 -13Q133 -13 93 19ZM54 664L197 671L223 641L211 537H65L54 664ZM268 664L411 671L437 641L425 537H279L268 664Z" />
<glyph unicode="&#xfd;" glyph-name="yacute" horiz-adv-x="471" d="M209 -186T192 -156T176 -119L219 2L165 -4Q162 -4 141 9L47 369L2 383V452Q152 476 162 476Q168 476 189 460T213 437L250 219L255 124H265L322 380L256 389V462Q433 476 443 476Q449 476 463
454T476 425L347 20L327 -85L382 -103L380 -166Q231 -186 214 -186Q209 -186 192 -156ZM161 574L306 732L395 653L388 599L210 516L161 574Z" />
<glyph unicode="&#xfe;" glyph-name="thorn" horiz-adv-x="495" d="M68 -186T51 -168T33 -143L40 39V558L-4 573V642Q156 665 173 665Q178 665 195 647T213 622V418L234 434Q243 440 267 458T294 476Q381 476 428 415T475 249Q475 209 467 167T448 99Q434 84 393
57T310 8T253 -13L213 -8V-79L257 -94V-163Q91 -186 73 -186Q68 -186 51 -168ZM279 74T284 117T290 234Q290 285 282 322T257 360Q252 360 213 339V100Q261 56 270 65Q279 74 284 117Z" />
<glyph unicode="&#xff;" glyph-name="ydieresis" horiz-adv-x="471" d="M209 -186T192 -156T176 -119L219 2L165 -4Q162 -4 141 9L47 369L2 383V452Q152 476 162 476Q168 476 189 460T213 437L250 219L255 124H265L322 380L256 389V462Q433 476 443 476Q449 476
463 454T476 425L347 20L327 -85L382 -103L380 -166Q231 -186 214 -186Q209 -186 192 -156ZM59 664L202 671L228 641L216 537H70L59 664ZM273 664L416 671L442 641L430 537H284L273 664Z" />
<glyph unicode="&#x2013;" glyph-name="endash" horiz-adv-x="428" d="M30 302H398V186H30V302Z" />
<glyph unicode="&#x2014;" glyph-name="emdash" horiz-adv-x="798" d="M30 302H768V186H30V302Z" />
<glyph unicode="&#x2018;" glyph-name="quoteleft" horiz-adv-x="253" d="M77 403T59 423T40 453V505Q40 586 139 707L210 671Q187 600 179 552Q182 550 198 537T213 514L207 421Q180 415 143 409T84 403Q77 403 59 423Z" />
<glyph unicode="&#x2019;" glyph-name="quoteright" horiz-adv-x="253" d="M43 442Q66 513 74 561Q71 563 55 576T40 599L46 692Q73 698 110 704T169 710Q176 710 194 690T213 660V608Q213 527 114 406L43 442Z" />
<glyph unicode="&#x201a;" glyph-name="quotesinglbase" horiz-adv-x="241" d="M45 -104Q62 -48 70 -1Q59 8 49 18T40 33L47 132Q110 142 162 142Q169 142 185 123T201 93V48Q201 23 172 -38T110 -139L45 -104Z" />
<glyph unicode="&#x201c;" glyph-name="quotedblleft" horiz-adv-x="470" d="M77 403T59 423T40 453V505Q40 586 139 707L210 671Q187 600 179 552Q182 550 198 537T213 514L207 421Q180 415 143 409T84 403Q77 403 59 423ZM294 403T276 423T257 453V505Q257 586
356 707L427 671Q404 600 396 552Q399 550 415 537T430 514L424 421Q397 415 360 409T301 403Q294 403 276 423Z" />
<glyph unicode="&#x201d;" glyph-name="quotedblright" horiz-adv-x="470" d="M43 442Q66 513 74 561Q71 563 55 576T40 599L46 692Q73 698 110 704T169 710Q176 710 194 690T213 660V608Q213 527 114 406L43 442ZM260 442Q283 513 291 561Q288 563 272 576T257
599L263 692Q290 698 327 704T386 710Q393 710 411 690T430 660V608Q430 527 331 406L260 442Z" />
<glyph unicode="&#x201e;" glyph-name="quotedblbase" horiz-adv-x="457" d="M45 -104Q62 -48 70 -1Q59 8 49 18T40 33L47 132Q110 142 162 142Q169 142 185 123T201 93V48Q201 23 172 -38T110 -139L45 -104ZM260 -104Q277 -48 285 -1Q274 8 264 18T255 33L262
132Q325 142 377 142Q384 142 400 123T416 93V48Q416 23 387 -38T325 -139L260 -104Z" />
<glyph unicode="&#x2022;" glyph-name="bullet" horiz-adv-x="499" d="M205 108T167 127T106 184T83 274Q83 326 105 364T166 421T250 441Q295 441 333 422T393 364T416 274Q416 222 394 185T333 128T250 108Q205 108 167 127Z" />
<glyph unicode="&#x2039;" glyph-name="guilsinglleft" horiz-adv-x="296" d="M25 180V280L186 436L251 390L184 239V221L251 70L186 24L25 180Z" />
<glyph unicode="&#x203a;" glyph-name="guilsinglright" horiz-adv-x="296" d="M45 70L112 221V239L45 390L110 436L271 280V180L110 24L45 70Z" />
</font>
</defs>
</svg>
